<?xml version="1.0" standalone="no"?>
<!DOCTYPE svg PUBLIC "-//W3C//DTD SVG 20010904//EN"
 "http://www.w3.org/TR/2001/REC-SVG-20010904/DTD/svg10.dtd">
<svg version="1.0" xmlns="http://www.w3.org/2000/svg"
 width="1920.000000pt" height="1080.000000pt" viewBox="0 0 1920.000000 1080.000000"
 preserveAspectRatio="xMidYMid meet">

<g transform="translate(0.000000,1080.000000) scale(0.100000,-0.100000)"
fill="#000000" stroke="none">
<path d="M1817 10624 c-4 -4 -7 -35 -7 -69 l0 -62 -52 -5 c-40 -4 -57 -11 -75
-32 -21 -25 -23 -37 -23 -132 0 -104 1 -106 30 -135 27 -28 34 -30 92 -27 l63
3 0 229 c0 218 -4 253 -28 230z m-7 -299 l0 -125 -37 0 c-61 0 -73 19 -73 123
0 107 11 127 72 127 l38 0 0 -125z"/>
<path d="M7737 10624 c-9 -9 -9 -458 -1 -467 3 -3 12 -3 20 0 10 3 14 22 14
62 0 36 6 65 16 80 16 23 16 23 56 -51 53 -98 58 -103 75 -85 12 12 8 26 -31
97 -25 45 -46 86 -46 90 0 4 20 30 45 58 48 53 53 67 30 76 -9 3 -36 -19 -77
-65 l-63 -70 -5 137 c-5 127 -12 159 -33 138z"/>
<path d="M8070 10601 c-23 -23 -30 -38 -30 -70 0 -36 -3 -40 -27 -43 -37 -4
-37 -32 -1 -36 l27 -3 3 -142 c3 -118 6 -142 18 -142 12 0 15 24 18 142 l3
142 37 3 c51 4 51 32 0 36 -36 3 -38 5 -38 36 0 35 22 61 55 68 30 5 25 32 -8
36 -20 2 -35 -5 -57 -27z"/>
<path d="M8227 10624 c-4 -4 -7 -100 -7 -214 0 -193 1 -209 20 -233 12 -15 27
-24 35 -20 19 7 19 27 0 43 -12 10 -15 51 -17 218 -3 194 -8 229 -31 206z"/>
<path d="M1034 10607 c-2 -7 -3 -109 -2 -227 3 -207 4 -215 23 -215 19 0 20 8
23 165 l3 165 34 -79 c19 -44 37 -82 40 -85 11 -10 34 25 64 94 l30 70 3 -165
c3 -157 4 -165 23 -165 19 0 20 7 20 225 0 221 0 225 -21 228 -18 3 -27 -12
-64 -100 -23 -57 -43 -104 -44 -105 -2 -2 -22 44 -46 102 -33 82 -47 105 -62
105 -10 0 -21 -6 -24 -13z"/>
<path d="M2485 10608 c-3 -7 -4 -110 -3 -228 l3 -215 77 0 c71 0 80 2 105 28
l28 27 0 170 0 170 -28 27 c-24 24 -36 28 -102 31 -57 3 -76 1 -80 -10z m145
-58 c18 -18 20 -33 20 -160 0 -127 -2 -142 -20 -160 -13 -13 -33 -20 -60 -20
l-40 0 0 180 0 180 40 0 c27 0 47 -7 60 -20z"/>
<path d="M4835 10608 c-3 -7 -4 -110 -3 -228 l3 -215 77 0 c71 0 80 2 105 28
l28 27 0 170 0 170 -28 27 c-24 24 -36 28 -102 31 -57 3 -76 1 -80 -10z m145
-58 c18 -18 20 -33 20 -160 0 -127 -2 -142 -20 -160 -13 -13 -33 -20 -60 -20
l-40 0 0 180 0 180 40 0 c27 0 47 -7 60 -20z"/>
<path d="M6750 10601 c0 -35 98 -423 110 -434 20 -20 34 14 70 165 18 79 35
147 38 152 3 5 23 -64 45 -153 36 -149 53 -188 74 -168 9 9 112 441 106 449
-2 5 -12 8 -22 8 -14 0 -24 -29 -57 -164 -21 -90 -42 -159 -45 -153 -4 7 -19
64 -33 127 -45 189 -45 190 -66 190 -16 0 -24 -23 -57 -160 -21 -88 -40 -160
-43 -160 -3 0 -22 72 -43 160 -33 138 -41 160 -58 160 -12 0 -19 -7 -19 -19z"/>
<path d="M1950 10595 c-11 -13 -11 -18 2 -31 20 -20 50 -7 46 20 -4 26 -30 32
-48 11z"/>
<path d="M2790 10595 c-11 -13 -11 -18 2 -31 20 -20 50 -7 46 20 -4 26 -30 32
-48 11z"/>
<path d="M1419 10461 c-28 -29 -29 -32 -29 -136 0 -104 1 -107 29 -136 33 -32
92 -40 126 -15 24 17 13 52 -13 41 -63 -27 -102 -8 -102 50 l0 34 73 3 72 3 3
63 c3 58 1 65 -27 92 -41 41 -91 41 -132 1z m103 -28 c11 -10 18 -30 18 -55
l0 -38 -55 0 -55 0 0 37 c0 63 50 94 92 56z"/>
<path d="M1955 10478 c-3 -8 -4 -81 -3 -163 3 -125 5 -150 18 -150 13 0 15 24
15 159 0 119 -3 160 -12 163 -7 3 -15 -2 -18 -9z"/>
<path d="M2102 10474 c-45 -31 -20 -57 32 -33 38 18 76 -10 76 -55 0 -33 -1
-34 -52 -38 -40 -4 -57 -11 -75 -32 -34 -39 -31 -90 7 -127 27 -28 34 -30 92
-27 l63 3 3 133 3 133 -30 29 c-34 34 -82 40 -119 14z m108 -219 l0 -55 -37 0
c-63 0 -94 50 -56 92 10 11 30 18 55 18 l38 0 0 -55z"/>
<path d="M2795 10478 c-3 -8 -4 -81 -3 -163 3 -125 5 -150 18 -150 13 0 15 24
15 159 0 119 -3 160 -12 163 -7 3 -15 -2 -18 -9z"/>
<path d="M2955 10465 c-17 -17 -25 -35 -25 -60 0 -38 17 -60 90 -115 28 -22
32 -30 27 -52 -10 -37 -42 -45 -77 -19 -24 17 -30 18 -40 6 -9 -11 -7 -19 14
-40 56 -56 146 -17 146 64 0 41 -5 47 -99 119 -19 14 -23 24 -18 44 9 36 35
43 69 18 48 -36 69 2 22 39 -36 28 -79 27 -109 -4z"/>
<path d="M3189 10461 c-28 -29 -29 -32 -29 -136 0 -104 1 -107 29 -136 32 -31
64 -36 106 -17 30 13 34 48 6 48 -11 0 -23 -4 -26 -10 -10 -16 -40 -12 -58 8
-13 14 -17 39 -17 110 0 86 1 93 24 107 19 13 29 14 45 6 47 -26 72 3 29 33
-35 25 -76 20 -109 -13z"/>
<path d="M3429 10461 c-28 -29 -29 -32 -29 -136 0 -104 1 -107 29 -136 22 -21
39 -29 66 -29 27 0 44 8 66 29 28 29 29 32 29 136 0 104 -1 107 -29 136 -22
21 -39 29 -66 29 -27 0 -44 -8 -66 -29z m103 -28 c25 -23 27 -187 1 -215 -20
-22 -51 -23 -75 -1 -25 23 -27 187 -1 215 20 22 51 23 75 1z"/>
<path d="M3650 10470 c0 -11 19 -84 42 -161 38 -126 57 -163 74 -146 9 8 94
289 94 310 0 10 -7 17 -18 17 -15 0 -26 -22 -54 -117 l-35 -117 -22 75 c-41
138 -48 154 -64 157 -12 2 -17 -3 -17 -18z"/>
<path d="M3949 10461 c-28 -29 -29 -32 -29 -136 0 -104 1 -107 29 -136 33 -32
92 -40 126 -15 24 17 13 52 -13 41 -63 -27 -102 -8 -102 50 l0 34 73 3 72 3 3
63 c3 58 1 65 -27 92 -41 41 -91 41 -132 1z m103 -28 c11 -10 18 -30 18 -55
l0 -38 -55 0 -55 0 0 37 c0 63 50 94 92 56z"/>
<path d="M4204 10477 c-2 -7 -3 -80 -2 -162 3 -125 5 -150 18 -150 13 0 15 24
18 144 l3 144 49 -6 c55 -7 75 7 45 30 -24 17 -124 18 -131 0z"/>
<path d="M4413 10478 c-7 -9 3 -55 33 -157 l44 -144 -16 -54 c-14 -46 -21 -57
-50 -69 -23 -10 -32 -19 -28 -29 5 -13 -201 -15 -1820 -15 l-1826 0 0 -4610 0
-4610 8845 0 8845 0 0 4610 0 4610 -6996 0 -6995 0 25 23 c21 17 39 64 86 222
33 110 60 205 60 211 0 7 -7 15 -15 18 -18 7 -24 -5 -63 -134 l-29 -95 -33
105 c-34 113 -50 140 -67 118z m13957 -5078 l0 -4540 -8775 0 -8775 0 0 4540
0 4540 8775 0 8775 0 0 -4540z"/>
<path d="M15340 9075 l0 -515 625 0 624 0 4 -127 3 -128 2 128 2 127 810 0
810 0 0 515 0 515 -1440 0 -1440 0 0 -515z m2830 0 l0 -465 -1390 0 -1390 0 0
465 0 465 1390 0 1390 0 0 -465z"/>
<path d="M16280 9221 c0 -41 -3 -50 -21 -54 -23 -6 -17 -27 7 -27 11 0 14 -16
14 -70 0 -76 19 -110 60 -110 27 0 25 23 -2 35 -20 9 -23 19 -26 78 -3 66 -3
67 23 67 16 0 25 6 25 15 0 9 -9 15 -25 15 -23 0 -25 3 -25 50 0 38 -4 50 -15
50 -11 0 -15 -12 -15 -49z"/>
<path d="M16750 9221 c0 -41 -3 -50 -21 -54 -23 -6 -17 -27 7 -27 11 0 14 -16
14 -70 0 -76 19 -110 60 -110 27 0 25 23 -2 35 -20 9 -23 19 -26 78 -3 66 -3
67 23 67 16 0 25 6 25 15 0 9 -9 15 -25 15 -23 0 -25 3 -25 50 0 38 -4 50 -15
50 -11 0 -15 -12 -15 -49z"/>
<path d="M17470 9115 c0 -131 2 -155 15 -155 12 0 15 17 15 91 l0 90 28 -3
c27 -3 27 -3 30 -90 2 -69 6 -88 17 -88 12 0 15 17 15 83 0 97 -14 127 -61
127 -28 0 -29 1 -29 50 0 38 -4 50 -15 50 -13 0 -15 -24 -15 -155z"/>
<path d="M16080 9090 c0 -107 14 -130 80 -130 l40 0 0 110 c0 91 -3 110 -15
110 -12 0 -15 -17 -15 -96 l0 -95 -27 3 -28 3 -3 93 c-2 73 -6 92 -17 92 -12
0 -15 -18 -15 -90z"/>
<path d="M16420 9160 c-16 -16 -20 -33 -20 -90 0 -76 19 -110 60 -110 41 0 60
34 60 110 0 76 -19 110 -60 110 -11 0 -29 -9 -40 -20z m65 -90 c0 -73 -1 -75
-25 -75 -24 0 -25 3 -28 64 -4 78 1 93 30 89 22 -3 23 -8 23 -78z"/>
<path d="M16595 9155 c-14 -13 -25 -29 -25 -36 0 -7 18 -30 41 -51 42 -40 48
-70 15 -76 -10 -2 -22 2 -27 9 -6 10 -11 11 -19 3 -8 -8 -7 -16 5 -28 22 -21
58 -20 78 2 29 32 21 63 -25 103 -40 35 -42 39 -27 54 14 14 20 15 37 4 30
-19 41 -1 13 22 -30 25 -37 24 -66 -6z"/>
<path d="M16890 9160 c-16 -16 -20 -33 -20 -90 0 -76 19 -110 60 -110 41 0 60
34 60 110 0 76 -19 110 -60 110 -11 0 -29 -9 -40 -20z m65 -90 c0 -73 -1 -75
-25 -75 -24 0 -25 3 -28 64 -4 78 1 93 30 89 22 -3 23 -8 23 -78z"/>
<path d="M17335 9155 c-14 -13 -25 -29 -25 -36 0 -7 18 -30 41 -51 42 -40 48
-70 15 -76 -10 -2 -22 2 -27 9 -6 10 -11 11 -19 3 -8 -8 -7 -16 5 -28 22 -21
58 -20 78 2 29 32 21 63 -25 103 -40 35 -42 39 -27 54 14 14 20 15 37 4 30
-19 41 -1 13 22 -30 25 -37 24 -66 -6z"/>
<path d="M15917 9163 c-18 -17 -4 -30 31 -29 33 1 37 -2 40 -26 3 -25 0 -28
-27 -28 -18 0 -40 -9 -51 -20 -45 -45 -9 -100 65 -100 l45 0 0 88 c0 73 -3 92
-18 105 -18 17 -73 23 -85 10z m73 -143 c0 -23 -5 -30 -19 -30 -32 0 -51 11
-51 30 0 20 13 28 48 29 18 1 22 -4 22 -29z"/>
<path d="M17040 9015 c0 -131 2 -155 15 -155 11 0 15 12 15 50 0 47 2 50 25
50 45 0 65 32 65 105 0 80 -19 105 -80 105 l-40 0 0 -155z m85 50 c0 -69 0
-70 -27 -73 l-28 -3 0 76 0 76 28 -3 c27 -3 27 -4 27 -73z"/>
<path d="M17230 8980 c0 -11 7 -20 15 -20 8 0 15 9 15 20 0 11 -7 20 -15 20
-8 0 -15 -9 -15 -20z"/>
<path d="M8510 9065 l0 -515 690 0 689 0 4 -122 3 -123 2 123 2 122 745 0 745
0 0 515 0 515 -1440 0 -1440 0 0 -515z m2830 0 l0 -465 -1390 0 -1390 0 0 465
0 465 1390 0 1390 0 0 -465z"/>
<path d="M9270 9220 c0 -43 -3 -50 -20 -50 -11 0 -20 -7 -20 -15 0 -8 9 -15
20 -15 18 0 20 -7 20 -75 0 -81 18 -115 60 -115 27 0 25 23 -2 35 -20 9 -23
18 -26 83 -3 71 -3 72 23 72 16 0 25 6 25 15 0 9 -9 15 -25 15 -23 0 -25 3
-25 50 0 38 -4 50 -15 50 -11 0 -15 -12 -15 -50z"/>
<path d="M9972 9113 c2 -97 7 -158 13 -158 6 0 11 18 13 40 6 69 21 73 54 14
34 -63 34 -63 48 -54 7 4 -1 28 -24 70 l-34 63 34 33 c23 22 31 36 24 43 -7 7
-25 -4 -55 -34 l-45 -44 0 92 c0 76 -3 92 -15 92 -13 0 -15 -22 -13 -157z"/>
<path d="M10250 9126 c0 -121 3 -147 16 -161 12 -11 20 -13 27 -6 8 8 7 15 -1
23 -8 8 -12 56 -12 150 0 116 -2 138 -15 138 -13 0 -15 -23 -15 -144z"/>
<path d="M10350 9126 c0 -121 3 -147 16 -161 12 -11 20 -13 27 -6 8 8 7 15 -1
23 -8 8 -12 56 -12 150 0 116 -2 138 -15 138 -13 0 -15 -23 -15 -144z"/>
<path d="M10162 9233 c2 -10 10 -18 18 -18 22 0 18 29 -3 33 -14 3 -18 -1 -15
-15z"/>
<path d="M8893 9155 c-8 -22 2 -28 24 -17 26 14 53 -3 53 -33 0 -21 -5 -25
-30 -25 -37 0 -70 -31 -70 -65 0 -40 33 -65 85 -65 l45 0 0 93 c0 78 -3 97
-18 110 -24 22 -81 22 -89 2z m77 -141 c0 -32 -2 -35 -26 -32 -56 6 -53 68 2
68 21 0 24 -5 24 -36z"/>
<path d="M9060 9080 c0 -110 13 -130 85 -130 l45 0 0 110 c0 91 -3 110 -15
110 -12 0 -15 -17 -15 -95 0 -92 -1 -95 -23 -95 -39 0 -47 18 -47 107 0 67 -3
83 -15 83 -12 0 -15 -17 -15 -90z"/>
<path d="M9410 9150 c-16 -16 -20 -33 -20 -90 0 -76 19 -110 60 -110 41 0 60
34 60 110 0 76 -19 110 -60 110 -11 0 -29 -9 -40 -20z m65 -90 c0 -73 -1 -75
-25 -75 -24 0 -25 3 -28 64 -4 78 1 93 30 89 22 -3 23 -8 23 -78z"/>
<path d="M9829 9158 c-10 -7 -20 -23 -24 -36 -6 -19 1 -31 39 -66 33 -30 45
-47 40 -59 -7 -19 -35 -22 -51 -6 -20 20 -36 -1 -17 -22 31 -35 85 -19 99 29
6 20 -1 31 -39 67 -32 29 -44 48 -40 59 7 19 35 21 52 4 16 -16 29 -1 16 20
-14 22 -54 27 -75 10z"/>
<path d="M10160 9060 c0 -91 3 -110 15 -110 12 0 15 19 15 110 0 91 -3 110
-15 110 -12 0 -15 -19 -15 -110z"/>
<path d="M10540 9010 c0 -136 2 -160 15 -160 11 0 15 12 15 50 0 49 1 50 30
50 51 0 70 29 70 110 0 88 -17 110 -85 110 l-45 0 0 -160z m88 118 c7 -7 12
-37 12 -68 0 -61 -11 -80 -47 -80 -22 0 -23 3 -23 80 0 77 1 80 23 80 13 0 28
-5 35 -12z"/>
<path d="M10710 9155 c0 -10 12 -56 26 -103 30 -99 26 -150 -13 -167 -13 -5
-23 -15 -23 -22 0 -19 35 -15 54 6 24 26 100 281 88 293 -12 12 -15 7 -36 -62
-10 -30 -20 -62 -23 -70 -3 -8 -15 19 -27 59 -21 69 -46 105 -46 66z"/>
<path d="M10450 8970 c0 -15 5 -20 18 -18 9 2 17 10 17 18 0 8 -8 16 -17 18
-13 2 -18 -3 -18 -18z"/>
<path d="M9525 8900 c-3 -5 0 -13 7 -15 25 -10 258 0 258 10 0 14 -256 19
-265 5z"/>
<path d="M11990 9065 l0 -515 650 0 649 0 4 -122 3 -123 2 123 2 122 785 0
785 0 0 515 0 515 -1440 0 -1440 0 0 -515z m2830 0 l0 -465 -1390 0 -1390 0 0
465 0 465 1390 0 1390 0 0 -465z"/>
<path d="M12543 9442 c-26 -4 -53 -37 -53 -65 0 -10 26 -45 57 -78 47 -49 55
-63 47 -77 -15 -23 -41 -27 -70 -11 -31 16 -42 4 -19 -21 27 -30 78 -27 104 6
12 15 21 33 21 41 0 8 -25 41 -56 73 -43 45 -54 63 -49 79 9 29 42 36 66 15
22 -20 38 -11 23 13 -12 20 -42 30 -71 25z"/>
<path d="M12670 9332 c0 -111 1 -120 23 -140 30 -28 68 -28 95 1 20 21 22 34
22 140 0 96 -3 117 -15 117 -12 0 -15 -22 -17 -116 -3 -99 -6 -119 -20 -128
-13 -8 -23 -8 -35 0 -15 9 -18 29 -21 128 -2 94 -5 116 -17 116 -12 0 -15 -21
-15 -118z"/>
<path d="M12903 9442 c-26 -4 -53 -37 -53 -65 0 -10 26 -45 57 -78 47 -49 55
-63 47 -77 -15 -23 -41 -27 -70 -11 -31 16 -42 4 -19 -21 27 -30 78 -27 104 6
12 15 21 33 21 41 0 8 -25 41 -56 73 -43 45 -54 63 -49 79 9 29 42 36 66 15
22 -20 38 -11 23 13 -12 20 -42 30 -71 25z"/>
<path d="M13040 9310 c0 -118 2 -140 15 -140 13 0 15 22 15 140 0 118 -2 140
-15 140 -13 0 -15 -22 -15 -140z"/>
<path d="M13403 9442 c-26 -4 -53 -37 -53 -65 0 -10 26 -45 57 -78 47 -49 55
-63 47 -77 -15 -23 -41 -27 -70 -11 -31 16 -42 4 -19 -21 27 -30 78 -27 104 6
12 15 21 33 21 41 0 8 -25 41 -56 73 -43 45 -54 63 -49 79 9 29 42 36 66 15
22 -20 38 -11 23 13 -12 20 -42 30 -71 25z"/>
<path d="M13878 9445 c-5 -6 68 -264 77 -274 12 -11 25 20 60 138 26 86 33
127 26 134 -12 12 -13 11 -50 -115 -19 -62 -30 -86 -34 -73 -52 182 -62 207
-79 190z"/>
<path d="M13530 9305 l0 -135 60 0 c47 0 60 3 60 15 0 11 -12 15 -45 15 l-45
0 0 50 0 50 40 0 c29 0 40 4 40 15 0 11 -11 15 -40 15 l-40 0 0 40 0 40 45 0
c33 0 45 4 45 15 0 12 -13 15 -60 15 l-60 0 0 -135z"/>
<path d="M13700 9305 c0 -113 2 -135 15 -135 12 0 15 13 15 60 0 52 2 60 19
60 14 0 25 -16 41 -60 13 -33 29 -60 36 -60 19 0 18 10 -6 70 -20 50 -20 50 0
70 27 27 26 84 0 110 -15 15 -33 20 -70 20 l-50 0 0 -135z m98 93 c7 -7 12
-21 12 -33 0 -29 -19 -45 -52 -45 -27 0 -28 2 -28 45 0 43 1 45 28 45 15 0 33
-5 40 -12z"/>
<path d="M14090 9305 l0 -135 60 0 c47 0 60 3 60 15 0 11 -12 15 -45 15 l-45
0 0 50 0 50 40 0 c29 0 40 4 40 15 0 11 -11 15 -40 15 l-40 0 0 40 0 40 45 0
c33 0 45 4 45 15 0 12 -13 15 -60 15 l-60 0 0 -135z"/>
<path d="M14260 9305 c0 -113 2 -135 15 -135 12 0 15 13 15 60 0 52 2 60 19
60 14 0 25 -16 41 -60 13 -33 29 -60 36 -60 19 0 18 10 -6 70 -20 50 -20 50 0
70 27 27 26 84 0 110 -15 15 -33 20 -70 20 l-50 0 0 -135z m98 93 c7 -7 12
-21 12 -33 0 -29 -19 -45 -52 -45 -27 0 -28 2 -28 45 0 43 1 45 28 45 15 0 33
-5 40 -12z"/>
<path d="M13090 9125 c0 -13 21 -15 125 -15 104 0 125 2 125 15 0 13 -21 15
-125 15 -104 0 -125 -2 -125 -15z"/>
<path d="M12902 8928 c-32 -54 -45 -107 -39 -163 5 -54 34 -122 60 -144 22
-18 33 6 13 28 -52 57 -57 178 -12 256 23 39 25 55 5 55 -4 0 -16 -15 -27 -32z"/>
<path d="M13690 8958 c0 -2 14 -30 30 -62 40 -78 40 -133 0 -212 -16 -32 -27
-60 -25 -62 11 -12 35 11 56 55 34 69 34 170 -1 233 -14 25 -33 46 -43 48 -9
2 -17 2 -17 0z"/>
<path d="M12980 8790 l0 -140 60 0 c47 0 60 3 60 15 0 11 -12 15 -45 15 l-45
0 0 125 c0 104 -2 125 -15 125 -13 0 -15 -22 -15 -140z"/>
<path d="M13622 8799 c3 -111 6 -134 20 -143 21 -13 36 0 20 16 -8 8 -12 54
-12 135 0 104 -2 123 -15 123 -13 0 -15 -19 -13 -131z"/>
<path d="M13157 8832 c-25 -27 -24 -143 1 -165 24 -22 55 -21 75 1 25 27 24
143 -1 165 -24 22 -55 21 -75 -1z m58 -82 c0 -58 -2 -65 -20 -65 -17 0 -20 8
-23 54 -4 65 2 84 25 79 15 -3 18 -14 18 -68z"/>
<path d="M13350 8843 c-29 -10 -40 -37 -40 -99 0 -54 3 -65 22 -78 28 -20 62
-21 77 -3 14 18 3 29 -19 17 -34 -18 -51 9 -48 75 l3 60 38 -2 c40 -3 49 10
18 27 -21 11 -28 11 -51 3z"/>
<path d="M13467 8833 c-14 -14 -6 -25 14 -20 31 8 49 -2 49 -29 0 -20 -5 -24
-28 -24 -33 0 -62 -27 -62 -57 0 -31 32 -53 78 -53 l42 0 0 79 c0 59 -4 84
-16 95 -15 16 -65 22 -77 9z m63 -128 c0 -20 -5 -25 -24 -25 -14 0 -28 5 -31
10 -12 19 4 40 30 40 20 0 25 -5 25 -25z"/>
<path d="M1300 9035 l0 -515 645 0 644 0 4 -107 3 -108 2 108 2 107 790 0 790
0 0 515 0 515 -1440 0 -1440 0 0 -515z m2830 0 l0 -465 -1390 0 -1390 0 0 465
0 465 1390 0 1390 0 0 -465z"/>
<path d="M1970 9205 c0 -43 -1 -45 -29 -45 -43 0 -61 -31 -61 -107 0 -78 19
-103 80 -103 l40 0 0 150 c0 127 -2 150 -15 150 -11 0 -15 -12 -15 -45z m0
-151 l0 -75 -27 3 c-27 3 -28 6 -31 62 -4 73 1 86 33 86 25 0 25 -1 25 -76z"/>
<path d="M2620 9205 c0 -43 -1 -45 -29 -45 -43 0 -61 -31 -61 -107 0 -78 19
-103 80 -103 l40 0 0 150 c0 127 -2 150 -15 150 -11 0 -15 -12 -15 -45z m0
-151 l0 -75 -27 3 c-27 3 -28 6 -31 62 -4 73 1 86 33 86 25 0 25 -1 25 -76z"/>
<path d="M3890 9100 c0 -127 2 -150 15 -150 12 0 15 17 15 91 l0 90 28 -3 c27
-3 27 -3 30 -90 2 -69 6 -88 17 -88 12 0 15 17 15 83 0 97 -14 127 -61 127
-28 0 -29 2 -29 45 0 33 -4 45 -15 45 -13 0 -15 -23 -15 -150z"/>
<path d="M2052 9214 c4 -21 22 -23 26 -1 2 10 -3 17 -13 17 -10 0 -15 -6 -13
-16z"/>
<path d="M1440 9055 c0 -87 3 -105 15 -105 12 0 15 17 15 90 l0 90 30 0 30 0
0 -90 c0 -73 3 -90 15 -90 12 0 15 17 15 91 l0 90 28 -3 c27 -3 27 -3 30 -90
2 -69 6 -88 17 -88 12 0 15 17 15 85 0 116 -9 125 -125 125 l-85 0 0 -105z"/>
<path d="M1730 9140 c-28 -28 -29 -149 -1 -174 24 -22 75 -18 79 6 2 12 -4 16
-30 15 -29 -2 -33 1 -36 26 -3 26 -2 27 42 27 l46 0 0 40 c0 45 -27 80 -60 80
-11 0 -29 -9 -40 -20z m68 -42 c3 -25 0 -28 -27 -28 -26 0 -31 4 -31 23 0 30
9 39 35 35 13 -2 21 -12 23 -30z"/>
<path d="M2050 9055 c0 -87 3 -105 15 -105 12 0 15 18 15 105 0 87 -3 105 -15
105 -12 0 -15 -18 -15 -105z"/>
<path d="M2153 9153 c-27 -10 -13 -31 20 -29 28 1 32 -2 35 -26 3 -25 0 -28
-27 -28 -32 0 -61 -30 -61 -62 0 -32 37 -58 80 -58 l40 0 0 88 c0 73 -3 92
-18 105 -18 17 -45 20 -69 10z m57 -143 c0 -25 -4 -30 -25 -30 -27 0 -41 20
-31 45 3 8 17 15 31 15 21 0 25 -5 25 -30z"/>
<path d="M2723 9153 c-27 -10 -13 -31 20 -29 28 1 32 -2 35 -26 3 -25 0 -28
-27 -28 -32 0 -61 -30 -61 -62 0 -32 37 -58 80 -58 l40 0 0 88 c0 73 -3 92
-18 105 -18 17 -45 20 -69 10z m57 -143 c0 -25 -4 -30 -25 -30 -27 0 -41 20
-31 45 3 8 17 15 31 15 21 0 25 -5 25 -30z"/>
<path d="M2890 9140 c-28 -28 -29 -149 -1 -174 24 -22 75 -18 79 6 2 12 -4 16
-30 15 -29 -2 -33 1 -36 26 -3 26 -2 27 42 27 l46 0 0 40 c0 45 -27 80 -60 80
-11 0 -29 -9 -40 -20z m68 -42 c3 -25 0 -28 -27 -28 -26 0 -31 4 -31 23 0 30
9 39 35 35 13 -2 21 -12 23 -30z"/>
<path d="M3040 9055 c0 -87 3 -105 15 -105 12 0 15 17 15 90 l0 90 30 0 30 0
0 -90 c0 -73 3 -90 15 -90 12 0 15 17 15 91 l0 90 28 -3 c27 -3 27 -3 30 -90
2 -69 6 -88 17 -88 12 0 15 17 15 85 0 116 -9 125 -125 125 l-85 0 0 -105z"/>
<path d="M3327 9142 c-25 -27 -24 -153 1 -175 24 -22 55 -21 75 1 25 27 24
153 -1 175 -24 22 -55 21 -75 -1z m58 -87 c0 -63 -2 -70 -20 -70 -17 0 -20 8
-23 59 -4 70 2 89 25 84 15 -3 18 -15 18 -73z"/>
<path d="M3480 9055 c0 -87 3 -105 15 -105 12 0 15 17 15 91 l0 90 28 -3 c27
-3 27 -3 30 -90 2 -69 6 -88 17 -88 12 0 15 17 15 85 0 102 -15 125 -80 125
l-40 0 0 -105z"/>
<path d="M3744 9135 c-21 -33 -8 -65 35 -91 34 -20 41 -51 15 -61 -9 -3 -25
-1 -35 5 -24 15 -34 -2 -13 -22 21 -21 57 -20 77 2 28 30 20 58 -23 93 -22 18
-40 38 -40 46 0 20 29 28 51 15 25 -16 38 7 14 25 -29 21 -63 16 -81 -12z"/>
<path d="M3657 8976 c-7 -16 1 -26 20 -26 7 0 13 9 13 20 0 23 -25 27 -33 6z"/>
<path d="M2270 8895 c0 -13 21 -15 125 -15 104 0 125 2 125 15 0 13 -21 15
-125 15 -104 0 -125 -2 -125 -15z"/>
<path d="M4900 9035 l0 -515 645 0 644 0 4 -107 3 -108 2 108 2 107 790 0 790
0 0 515 0 515 -1440 0 -1440 0 0 -515z m2830 0 l0 -465 -1390 0 -1390 0 0 465
0 465 1390 0 1390 0 0 -465z"/>
<path d="M5710 9190 c0 -43 -3 -50 -20 -50 -11 0 -20 -7 -20 -15 0 -8 9 -15
20 -15 18 0 20 -7 20 -75 0 -81 18 -115 60 -115 27 0 25 23 -2 35 -20 9 -23
18 -26 83 -3 71 -3 72 23 72 16 0 25 6 25 15 0 9 -9 15 -25 15 -23 0 -25 3
-25 50 0 38 -4 50 -15 50 -11 0 -15 -12 -15 -50z"/>
<path d="M6190 9190 c0 -43 -3 -50 -20 -50 -11 0 -20 -7 -20 -15 0 -8 9 -15
20 -15 18 0 20 -7 20 -75 0 -81 18 -115 60 -115 27 0 25 23 -2 35 -20 9 -23
18 -26 83 -3 71 -3 72 23 72 16 0 25 6 25 15 0 9 -9 15 -25 15 -23 0 -25 3
-25 50 0 38 -4 50 -15 50 -11 0 -15 -12 -15 -50z"/>
<path d="M6650 9190 c0 -43 -3 -50 -20 -50 -11 0 -20 -7 -20 -15 0 -8 9 -15
20 -15 18 0 20 -7 20 -75 0 -81 18 -115 60 -115 27 0 25 23 -2 35 -20 9 -23
18 -26 83 -3 71 -3 72 23 72 16 0 25 6 25 15 0 9 -9 15 -25 15 -23 0 -25 3
-25 50 0 38 -4 50 -15 50 -11 0 -15 -12 -15 -50z"/>
<path d="M7010 9080 c0 -136 2 -160 15 -160 12 0 15 17 15 95 0 92 1 95 23 95
39 0 47 -18 47 -107 0 -67 3 -83 15 -83 12 0 15 17 15 90 0 102 -15 130 -70
130 -29 0 -30 1 -30 50 0 38 -4 50 -15 50 -13 0 -15 -24 -15 -160z"/>
<path d="M5343 9125 c-8 -22 2 -28 24 -17 26 14 53 -3 53 -33 0 -21 -5 -25
-30 -25 -37 0 -70 -31 -70 -65 0 -40 33 -65 85 -65 l45 0 0 93 c0 78 -3 97
-18 110 -24 22 -81 22 -89 2z m77 -141 c0 -32 -2 -35 -26 -32 -56 6 -53 68 2
68 21 0 24 -5 24 -36z"/>
<path d="M5500 9050 c0 -110 13 -130 85 -130 l45 0 0 110 c0 91 -3 110 -15
110 -12 0 -15 -17 -15 -95 0 -92 -1 -95 -23 -95 -39 0 -47 18 -47 107 0 67 -3
83 -15 83 -12 0 -15 -17 -15 -90z"/>
<path d="M5850 9120 c-16 -16 -20 -33 -20 -90 0 -76 19 -110 60 -110 41 0 60
34 60 110 0 76 -19 110 -60 110 -11 0 -29 -9 -40 -20z m65 -90 c0 -73 -1 -75
-25 -75 -24 0 -25 3 -28 64 -4 78 1 93 30 89 22 -3 23 -8 23 -78z"/>
<path d="M6029 9128 c-10 -7 -20 -23 -24 -36 -6 -19 1 -31 39 -66 33 -30 45
-47 40 -59 -7 -19 -35 -22 -51 -6 -20 20 -36 -1 -17 -22 31 -35 85 -19 99 29
6 20 -1 31 -39 67 -32 29 -44 48 -40 59 7 19 35 21 52 4 16 -16 29 -1 16 20
-14 22 -54 27 -75 10z"/>
<path d="M6313 9125 c-8 -22 2 -28 24 -17 26 14 53 -3 53 -33 0 -21 -5 -25
-30 -25 -37 0 -70 -31 -70 -65 0 -40 33 -65 85 -65 l45 0 0 93 c0 78 -3 97
-18 110 -24 22 -81 22 -89 2z m77 -141 c0 -32 -2 -35 -26 -32 -56 6 -53 68 2
68 21 0 24 -5 24 -36z"/>
<path d="M6470 9031 c0 -92 3 -111 15 -111 12 0 15 17 15 96 l0 96 33 -4 c23
-2 32 1 32 12 0 11 -13 16 -47 18 l-48 3 0 -110z"/>
<path d="M6879 9128 c-10 -7 -20 -23 -24 -36 -6 -19 1 -31 39 -66 33 -30 45
-47 40 -59 -7 -19 -35 -22 -51 -6 -20 20 -36 -1 -17 -22 31 -35 85 -19 99 29
6 20 -1 31 -39 67 -32 29 -44 48 -40 59 7 19 35 21 52 4 16 -16 29 -1 16 20
-14 22 -54 27 -75 10z"/>
<path d="M6770 8940 c0 -15 5 -20 18 -18 9 2 17 10 17 18 0 8 -8 16 -17 18
-13 2 -18 -3 -18 -18z"/>
<path d="M2592 7963 l-2 -103 -805 0 -805 0 0 -590 0 -590 805 0 805 0 3 -492
2 -493 3 493 2 492 810 0 810 0 0 235 0 235 235 0 235 0 0 -95 0 -95 190 95
c104 52 199 95 210 95 19 0 20 -6 20 -230 l0 -230 540 0 540 0 3 -497 2 -498
3 498 2 497 1075 0 1075 0 0 230 0 230 265 0 265 0 0 -90 0 -90 180 90 c107
54 192 90 210 90 l30 0 0 -230 0 -230 295 0 295 0 3 -497 2 -498 3 498 2 497
1320 0 1320 0 0 590 0 590 -1320 0 -1319 0 -4 98 -3 97 -2 -97 -2 -98 -295 0
-295 0 0 -325 0 -325 -210 105 -210 105 0 -110 0 -110 -265 0 -265 0 0 330 0
330 -1075 0 -1074 0 -4 98 -3 97 -2 -97 -2 -98 -540 0 -540 0 0 -330 0 -330
-210 105 -210 105 0 -105 0 -105 -235 0 -235 0 0 325 0 325 -810 0 -809 0 -4
103 -3 102 -2 -102z m5728 -683 l0 -560 -1590 0 -1590 0 0 560 0 560 1590 0
1590 0 0 -560z m4190 0 l0 -560 -1590 0 -1590 0 0 560 0 560 1590 0 1590 0 0
-560z m-8321 -10 l0 -560 -1589 0 -1590 0 0 560 0 560 1590 0 1590 0 -1 -560z"/>
<path d="M5410 7610 c0 -127 2 -150 15 -150 12 0 15 17 15 91 l0 90 28 -3 c27
-3 27 -3 30 -90 2 -69 6 -88 17 -88 12 0 15 17 15 83 0 97 -14 127 -61 127
-28 0 -29 2 -29 45 0 33 -4 45 -15 45 -13 0 -15 -23 -15 -150z"/>
<path d="M5912 7615 c2 -86 7 -146 13 -148 6 -1 12 18 15 42 3 25 10 46 15 48
6 1 23 -20 38 -48 19 -35 32 -48 38 -42 7 7 1 28 -19 64 l-31 54 30 35 c54 64
29 71 -30 8 l-40 -43 -1 88 c0 71 -3 87 -15 87 -13 0 -15 -20 -13 -145z"/>
<path d="M6340 7716 c0 -36 -4 -45 -21 -49 -23 -6 -17 -27 7 -27 11 0 14 -16
14 -73 0 -77 15 -107 53 -107 24 0 21 27 -3 33 -18 5 -20 14 -20 76 0 64 2 71
20 71 11 0 20 7 20 15 0 8 -9 15 -20 15 -17 0 -20 7 -20 45 0 33 -4 45 -15 45
-11 0 -15 -12 -15 -44z"/>
<path d="M6450 7610 c0 -127 2 -150 15 -150 12 0 15 17 15 91 l0 90 28 -3 c27
-3 27 -3 30 -90 2 -69 6 -88 17 -88 12 0 15 17 15 83 0 97 -14 127 -61 127
-28 0 -29 2 -29 45 0 33 -4 45 -15 45 -13 0 -15 -23 -15 -150z"/>
<path d="M7470 7716 c0 -36 -4 -45 -21 -49 -23 -6 -17 -27 7 -27 11 0 14 -16
14 -73 0 -77 15 -107 53 -107 24 0 21 27 -3 33 -18 5 -20 14 -20 76 0 64 2 71
20 71 11 0 20 7 20 15 0 8 -9 15 -20 15 -17 0 -20 7 -20 45 0 33 -4 45 -15 45
-11 0 -15 -12 -15 -44z"/>
<path d="M5256 7729 c-25 -20 -26 -24 -26 -125 0 -91 3 -107 20 -124 26 -26
72 -26 95 0 24 26 12 37 -21 20 -46 -25 -59 -6 -62 100 -3 96 5 120 38 120 10
0 23 -7 30 -15 10 -12 16 -13 24 -5 8 8 5 17 -13 31 -30 24 -52 24 -85 -2z"/>
<path d="M7212 7724 c4 -21 22 -23 26 -1 2 10 -3 17 -13 17 -10 0 -15 -6 -13
-16z"/>
<path d="M5610 7650 c-28 -28 -29 -149 -2 -173 19 -18 40 -21 66 -11 29 11 18
32 -16 30 -29 -1 -33 2 -36 27 -3 26 -2 27 42 27 l46 0 0 40 c0 45 -27 80 -60
80 -11 0 -29 -9 -40 -20z m68 -42 c3 -25 0 -28 -27 -28 -26 0 -31 4 -31 23 0
30 9 39 35 35 13 -2 21 -12 23 -30z"/>
<path d="M5785 7658 c-31 -18 -35 -28 -35 -100 0 -58 3 -69 22 -82 28 -20 62
-20 78 -1 13 16 11 17 -35 19 -29 1 -30 2 -33 59 -4 70 9 91 50 82 36 -8 38
12 2 25 -30 12 -24 12 -49 -2z"/>
<path d="M6103 7660 c-46 -19 -38 -71 17 -110 16 -12 30 -28 30 -36 0 -20 -29
-29 -51 -16 -25 16 -38 -7 -14 -25 29 -20 63 -16 81 12 20 31 12 57 -31 90
-19 14 -35 33 -35 41 0 21 27 29 46 14 10 -9 18 -10 25 -3 7 7 4 16 -12 27
-26 18 -26 18 -56 6z"/>
<path d="M6650 7650 c-28 -28 -29 -149 -2 -173 19 -18 40 -21 66 -11 29 11 18
32 -16 30 -29 -1 -33 2 -36 27 -3 26 -2 27 42 27 l46 0 0 40 c0 45 -27 80 -60
80 -11 0 -29 -9 -40 -20z m68 -42 c3 -25 0 -28 -27 -28 -26 0 -31 4 -31 23 0
30 9 39 35 35 13 -2 21 -12 23 -30z"/>
<path d="M6900 7650 c-28 -28 -29 -149 -2 -173 19 -18 40 -21 66 -11 29 11 18
32 -16 30 -29 -1 -33 2 -36 27 -3 26 -2 27 42 27 l46 0 0 40 c0 45 -27 80 -60
80 -11 0 -29 -9 -40 -20z m68 -42 c3 -25 0 -28 -27 -28 -26 0 -31 4 -31 23 0
30 9 39 35 35 13 -2 21 -12 23 -30z"/>
<path d="M7045 7660 c-4 -6 4 -30 18 -54 l24 -43 -23 -39 c-13 -22 -24 -45
-24 -51 0 -25 21 -12 37 22 9 19 20 35 23 35 3 0 14 -16 23 -36 10 -19 22 -34
28 -32 15 5 14 7 -11 60 l-23 46 21 37 c23 37 28 65 14 65 -5 0 -17 -16 -28
-35 -10 -19 -21 -35 -25 -35 -4 0 -12 14 -19 30 -15 35 -26 45 -35 30z"/>
<path d="M7216 7663 c-3 -3 -6 -51 -6 -105 0 -80 3 -98 15 -98 12 0 15 18 15
99 0 91 -7 121 -24 104z"/>
<path d="M7323 7660 c-46 -19 -38 -71 17 -110 16 -12 30 -28 30 -36 0 -20 -29
-29 -51 -16 -25 16 -38 -7 -14 -25 29 -20 63 -16 81 12 20 31 12 57 -31 90
-19 14 -35 33 -35 41 0 21 27 29 46 14 10 -9 18 -10 25 -3 7 7 4 16 -12 27
-26 18 -26 18 -56 6z"/>
<path d="M7610 7650 c-28 -28 -29 -149 -2 -173 19 -18 40 -21 66 -11 29 11 18
32 -16 30 -29 -1 -33 2 -36 27 -3 26 -2 27 42 27 l46 0 0 40 c0 45 -27 80 -60
80 -11 0 -29 -9 -40 -20z m68 -42 c3 -25 0 -28 -27 -28 -26 0 -31 4 -31 23 0
30 9 39 35 35 13 -2 21 -12 23 -30z"/>
<path d="M7760 7565 c0 -87 3 -105 15 -105 12 0 15 17 15 91 l0 90 28 -3 c27
-3 27 -3 30 -90 2 -69 6 -88 17 -88 12 0 15 17 15 85 0 102 -15 125 -80 125
l-40 0 0 -105z"/>
<path d="M7955 7658 c-31 -18 -35 -28 -35 -100 0 -58 3 -69 22 -82 28 -20 62
-20 78 -1 13 16 11 17 -35 19 -29 1 -30 2 -33 59 -4 70 9 91 50 82 36 -8 38
12 2 25 -30 12 -24 12 -49 -2z"/>
<path d="M8100 7650 c-28 -28 -29 -149 -2 -173 19 -18 40 -21 66 -11 29 11 18
32 -16 30 -29 -1 -33 2 -36 27 -3 26 -2 27 42 27 l46 0 0 40 c0 45 -27 80 -60
80 -11 0 -29 -9 -40 -20z m68 -42 c3 -25 0 -28 -27 -28 -26 0 -31 4 -31 23 0
30 9 39 35 35 13 -2 21 -12 23 -30z"/>
<path d="M5447 7192 c-10 -10 -17 -30 -17 -44 0 -18 -7 -27 -21 -31 -23 -6
-17 -27 7 -27 11 0 14 -18 14 -90 0 -73 3 -90 15 -90 12 0 15 17 15 90 0 83 1
90 20 90 11 0 20 7 20 15 0 8 -9 15 -20 15 -15 0 -20 7 -20 26 0 17 6 28 20
31 11 3 20 12 20 19 0 20 -34 17 -53 -4z"/>
<path d="M5650 7166 c0 -36 -4 -45 -21 -49 -23 -6 -17 -27 7 -27 11 0 14 -16
14 -73 0 -77 15 -107 53 -107 24 0 21 27 -3 33 -18 5 -20 14 -20 76 0 64 2 71
20 71 11 0 20 7 20 15 0 8 -9 15 -20 15 -17 0 -20 7 -20 45 0 33 -4 45 -15 45
-11 0 -15 -12 -15 -44z"/>
<path d="M5760 7060 c0 -127 2 -150 15 -150 12 0 15 17 15 91 l0 90 28 -3 c27
-3 27 -3 30 -90 2 -69 6 -88 17 -88 12 0 15 17 15 83 0 97 -14 127 -61 127
-28 0 -29 2 -29 45 0 33 -4 45 -15 45 -13 0 -15 -23 -15 -150z"/>
<path d="M6200 7076 c0 -111 3 -137 16 -151 13 -12 19 -14 28 -4 8 8 8 13 -1
16 -10 3 -13 41 -13 139 0 112 -2 134 -15 134 -13 0 -15 -22 -15 -134z"/>
<path d="M6770 7076 c0 -111 3 -137 16 -151 13 -12 19 -14 28 -4 8 8 8 13 -1
16 -10 3 -13 41 -13 139 0 112 -2 134 -15 134 -13 0 -15 -22 -15 -134z"/>
<path d="M5257 7102 c-25 -27 -24 -153 1 -175 24 -22 55 -21 75 1 25 27 24
153 -1 175 -24 22 -55 21 -75 -1z m58 -87 c0 -63 -2 -70 -20 -70 -17 0 -20 8
-23 59 -4 70 2 89 25 84 15 -3 18 -15 18 -73z"/>
<path d="M5960 7100 c-28 -28 -29 -149 -2 -173 19 -18 40 -21 66 -11 29 11 18
32 -16 30 -29 -1 -33 2 -36 27 -3 26 -2 27 42 27 l46 0 0 40 c0 45 -27 80 -60
80 -11 0 -29 -9 -40 -20z m68 -42 c3 -25 0 -28 -27 -28 -26 0 -31 4 -31 23 0
30 9 39 35 35 13 -2 21 -12 23 -30z"/>
<path d="M6307 7102 c-25 -27 -24 -153 1 -175 24 -22 55 -21 75 1 25 27 24
153 -1 175 -24 22 -55 21 -75 -1z m58 -87 c0 -63 -2 -70 -20 -70 -17 0 -20 8
-23 59 -4 70 2 89 25 84 15 -3 18 -15 18 -73z"/>
<path d="M6485 7108 c-31 -18 -35 -28 -35 -100 0 -58 3 -69 22 -82 28 -20 62
-20 78 -1 13 16 11 17 -35 19 -29 1 -30 2 -33 59 -4 70 9 91 50 82 36 -8 38
12 2 25 -30 12 -24 12 -49 -2z"/>
<path d="M6623 7113 c-27 -10 -13 -31 20 -29 28 1 32 -2 35 -26 3 -25 0 -28
-27 -28 -32 0 -61 -30 -61 -62 0 -32 37 -58 80 -58 l40 0 0 85 c0 72 -3 88
-20 105 -19 19 -42 24 -67 13z m57 -143 c0 -25 -4 -30 -25 -30 -14 0 -28 7
-31 15 -10 25 4 45 31 45 21 0 25 -5 25 -30z"/>
<path d="M6973 7110 c-46 -19 -38 -71 17 -110 16 -12 30 -28 30 -36 0 -20 -29
-29 -51 -16 -25 16 -38 -7 -14 -25 29 -20 63 -16 81 12 20 31 12 57 -31 90
-19 14 -35 33 -35 41 0 21 27 29 46 14 10 -9 18 -10 25 -3 7 7 4 16 -12 27
-26 18 -26 18 -56 6z"/>
<path d="M7120 7100 c-28 -28 -29 -149 -2 -173 19 -18 40 -21 66 -11 29 11 18
32 -16 30 -29 -1 -33 2 -36 27 -3 26 -2 27 42 27 l46 0 0 40 c0 45 -27 80 -60
80 -11 0 -29 -9 -40 -20z m68 -42 c3 -25 0 -28 -27 -28 -26 0 -31 4 -31 23 0
30 9 39 35 35 13 -2 21 -12 23 -30z"/>
<path d="M7260 7015 c0 -87 3 -105 15 -105 12 0 15 17 15 91 l0 91 30 -4 c34
-5 51 9 29 23 -8 5 -31 9 -51 9 l-38 0 0 -105z"/>
<path d="M7400 7103 c0 -33 54 -193 64 -190 14 5 67 178 61 196 -8 22 -18 5
-41 -67 l-21 -67 -22 73 c-21 67 -41 94 -41 55z"/>
<path d="M7590 7100 c-28 -28 -29 -149 -2 -173 19 -18 40 -21 66 -11 29 11 18
32 -16 30 -29 -1 -33 2 -36 27 -3 26 -2 27 42 27 l46 0 0 40 c0 45 -27 80 -60
80 -11 0 -29 -9 -40 -20z m68 -42 c3 -25 0 -28 -27 -28 -26 0 -31 4 -31 23 0
30 9 39 35 35 13 -2 21 -12 23 -30z"/>
<path d="M7740 7015 c0 -87 3 -105 15 -105 12 0 15 17 15 91 l0 91 30 -4 c34
-5 51 9 29 23 -8 5 -31 9 -51 9 l-38 0 0 -105z"/>
<path d="M9480 7680 c0 -5 9 -10 20 -10 18 0 20 -7 20 -85 0 -50 4 -85 10 -85
6 0 10 35 10 85 0 78 2 85 20 85 11 0 20 5 20 10 0 6 -22 10 -50 10 -27 0 -50
-4 -50 -10z"/>
<path d="M10430 7661 c0 -16 -6 -32 -12 -34 -10 -4 -10 -7 -1 -14 6 -5 13 -28
15 -52 3 -43 28 -75 45 -57 4 4 0 12 -10 17 -22 13 -25 89 -2 89 8 0 15 5 15
10 0 6 -7 10 -15 10 -10 0 -15 10 -15 30 0 17 -4 30 -10 30 -5 0 -10 -13 -10
-29z"/>
<path d="M10510 7595 c0 -57 4 -95 10 -95 6 0 10 25 10 55 0 42 3 55 15 55 12
0 15 -13 15 -55 0 -32 4 -55 10 -55 7 0 10 22 8 58 -3 48 -7 59 -25 67 -16 7
-23 18 -23 37 0 16 -4 28 -10 28 -6 0 -10 -38 -10 -95z"/>
<path d="M11050 7595 c0 -57 4 -95 10 -95 6 0 10 25 10 55 0 42 3 55 15 55 12
0 15 -13 15 -55 0 -32 4 -55 10 -55 7 0 10 22 8 58 -3 48 -7 59 -25 67 -16 7
-23 18 -23 37 0 16 -4 28 -10 28 -6 0 -10 -38 -10 -95z"/>
<path d="M11222 7604 c2 -70 6 -89 21 -98 12 -8 22 -8 35 0 14 9 18 28 20 98
2 52 -1 86 -7 86 -6 0 -11 -36 -13 -82 -2 -66 -6 -83 -18 -83 -12 0 -16 17
-18 83 -2 46 -7 82 -13 82 -6 0 -9 -34 -7 -86z"/>
<path d="M11350 7670 c-27 -27 -26 -34 16 -80 22 -24 34 -46 30 -55 -6 -17
-46 -21 -46 -4 0 5 -5 7 -10 4 -17 -10 9 -35 36 -35 22 0 44 25 44 49 0 6 -16
29 -37 51 -33 38 -35 42 -20 57 13 14 19 14 32 3 8 -7 19 -10 23 -6 7 8 -25
36 -40 36 -4 0 -17 -9 -28 -20z"/>
<path d="M11450 7595 l0 -95 28 0 c15 0 33 5 40 12 15 15 16 60 1 75 -8 8 -8
13 0 17 15 9 14 59 -1 74 -7 7 -25 12 -40 12 l-28 0 0 -95z m55 45 c0 -16 -6
-26 -17 -28 -14 -3 -18 3 -18 28 0 25 4 31 18 28 11 -2 17 -12 17 -28z m0 -85
c0 -20 -6 -31 -17 -33 -15 -3 -18 4 -18 33 0 29 3 36 18 33 11 -2 17 -13 17
-33z"/>
<path d="M11680 7662 c0 -19 -7 -30 -22 -37 -18 -8 -24 -20 -26 -53 -4 -50 10
-72 44 -72 24 0 24 2 24 95 0 57 -4 95 -10 95 -5 0 -10 -12 -10 -28z m0 -97
c0 -33 -4 -45 -15 -45 -11 0 -15 12 -15 45 0 33 4 45 15 45 11 0 15 -12 15
-45z"/>
<path d="M11960 7670 c0 -5 5 -10 10 -10 6 0 10 5 10 10 0 6 -4 10 -10 10 -5
0 -10 -4 -10 -10z"/>
<path d="M9683 7633 c-19 -7 -16 -24 4 -21 26 5 27 -26 1 -37 -44 -19 -30 -75
18 -75 23 0 24 4 24 58 0 32 -5 63 -12 70 -13 13 -16 13 -35 5z m27 -94 c0
-24 -23 -21 -28 4 -2 10 3 17 12 17 10 0 16 -9 16 -21z"/>
<path d="M9580 7565 c0 -37 4 -65 10 -65 6 0 10 25 10 55 0 48 2 55 20 55 11
0 20 5 20 10 0 6 -13 10 -30 10 l-30 0 0 -65z"/>
<path d="M9760 7627 c0 -13 33 -114 40 -120 7 -8 15 12 45 111 3 6 0 12 -5 12
-5 0 -15 -21 -22 -47 l-14 -48 -13 48 c-8 26 -18 47 -22 47 -5 0 -9 -1 -9 -3z"/>
<path d="M9882 7618 c-17 -17 -15 -93 3 -108 15 -12 55 -5 55 11 0 5 -10 8
-22 6 -14 -1 -23 4 -26 16 -3 13 3 17 27 17 26 0 31 4 31 23 0 27 -17 47 -40
47 -9 0 -21 -5 -28 -12z m48 -23 c0 -8 -9 -15 -20 -15 -20 0 -26 11 -13 23 12
13 33 7 33 -8z"/>
<path d="M9980 7565 c0 -37 4 -65 10 -65 6 0 10 25 10 55 0 48 2 55 20 55 11
0 20 5 20 10 0 6 -13 10 -30 10 l-30 0 0 -65z"/>
<path d="M10070 7611 c-9 -17 -6 -24 15 -43 34 -30 33 -52 -2 -43 -24 6 -25 4
-13 -10 20 -24 54 -15 58 16 2 19 -4 31 -22 43 -33 21 -34 40 -1 33 16 -3 24
0 22 7 -7 20 -45 18 -57 -3z"/>
<path d="M10172 7618 c-17 -17 -15 -93 3 -108 15 -12 55 -5 55 11 0 5 -10 8
-22 6 -14 -1 -23 4 -26 16 -3 13 3 17 27 17 26 0 31 4 31 23 0 27 -17 47 -40
47 -9 0 -21 -5 -28 -12z m48 -23 c0 -8 -9 -15 -20 -15 -20 0 -26 11 -13 23 12
13 33 7 33 -8z"/>
<path d="M10270 7611 c-9 -17 -6 -24 15 -43 34 -30 33 -52 -2 -43 -24 6 -25 4
-13 -10 20 -24 54 -15 58 16 2 19 -4 31 -22 43 -33 21 -34 40 -1 33 16 -3 24
0 22 7 -7 20 -45 18 -57 -3z"/>
<path d="M10630 7565 c0 -37 4 -65 10 -65 6 0 10 25 10 55 0 48 2 55 20 55 11
0 20 5 20 10 0 6 -13 10 -30 10 l-30 0 0 -65z"/>
<path d="M10722 7618 c-7 -7 -12 -31 -12 -54 0 -82 62 -86 68 -5 4 59 -25 90
-56 59z m38 -53 c0 -33 -4 -45 -15 -45 -11 0 -15 12 -15 45 0 33 4 45 15 45
11 0 15 -12 15 -45z"/>
<path d="M10820 7577 c0 -58 12 -77 47 -77 22 0 23 4 23 65 0 37 -4 65 -10 65
-5 0 -10 -25 -10 -55 0 -42 -3 -55 -15 -55 -12 0 -15 13 -15 55 0 30 -4 55
-10 55 -5 0 -10 -24 -10 -53z"/>
<path d="M10951 7616 c-7 -8 -11 -34 -9 -58 2 -33 8 -45 26 -53 29 -13 31 -50
2 -42 -23 6 -27 -11 -5 -19 33 -13 45 15 45 102 0 82 -1 84 -24 84 -13 0 -29
-6 -35 -14z m39 -51 c0 -33 -4 -45 -15 -45 -11 0 -15 12 -15 45 0 33 4 45 15
45 11 0 15 -12 15 -45z"/>
<path d="M11762 7618 c-17 -17 -15 -93 3 -108 15 -12 55 -5 55 11 0 5 -10 8
-22 6 -14 -1 -23 4 -26 16 -3 13 3 17 27 17 26 0 31 4 31 23 0 27 -17 47 -40
47 -9 0 -21 -5 -28 -12z m48 -23 c0 -8 -9 -15 -20 -15 -20 0 -26 11 -13 23 12
13 33 7 33 -8z"/>
<path d="M11850 7627 c0 -13 33 -114 40 -120 7 -8 15 12 45 111 3 6 0 12 -5
12 -5 0 -15 -21 -22 -47 l-14 -48 -13 48 c-8 26 -18 47 -22 47 -5 0 -9 -1 -9
-3z"/>
<path d="M11960 7565 c0 -37 4 -65 10 -65 6 0 10 28 10 65 0 37 -4 65 -10 65
-6 0 -10 -28 -10 -65z"/>
<path d="M12032 7618 c-17 -17 -15 -93 3 -108 16 -13 48 -10 43 5 -2 5 -11 8
-20 7 -15 -3 -18 4 -18 42 0 43 2 46 26 46 14 0 23 4 19 10 -8 14 -38 13 -53
-2z"/>
<path d="M12132 7618 c-17 -17 -15 -93 3 -108 15 -12 55 -5 55 11 0 5 -10 8
-22 6 -14 -1 -23 4 -26 16 -3 13 3 17 27 17 26 0 31 4 31 23 0 27 -17 47 -40
47 -9 0 -21 -5 -28 -12z m48 -23 c0 -8 -9 -15 -20 -15 -20 0 -26 11 -13 23 12
13 33 7 33 -8z"/>
<path d="M9760 7312 c0 -19 -7 -30 -22 -37 -18 -8 -24 -20 -26 -53 -4 -50 10
-72 44 -72 24 0 24 2 24 95 0 57 -4 95 -10 95 -5 0 -10 -12 -10 -28z m0 -97
c0 -33 -4 -45 -15 -45 -11 0 -15 12 -15 45 0 33 4 45 15 45 11 0 15 -12 15
-45z"/>
<path d="M9990 7311 c0 -16 -6 -32 -12 -34 -10 -4 -10 -7 -1 -14 6 -5 13 -28
15 -52 3 -43 28 -75 45 -57 4 4 0 12 -10 17 -22 13 -25 89 -2 89 8 0 15 5 15
10 0 6 -7 10 -15 10 -10 0 -15 10 -15 30 0 17 -4 30 -10 30 -5 0 -10 -13 -10
-29z"/>
<path d="M10540 7311 c0 -16 -6 -32 -12 -34 -10 -4 -10 -7 -1 -14 6 -5 13 -28
15 -52 3 -43 28 -75 45 -57 4 4 0 12 -10 17 -22 13 -25 89 -2 89 8 0 15 5 15
10 0 6 -7 10 -15 10 -10 0 -15 10 -15 30 0 17 -4 30 -10 30 -5 0 -10 -13 -10
-29z"/>
<path d="M10610 7245 c0 -57 4 -95 10 -95 6 0 10 25 10 55 0 42 3 55 15 55 12
0 15 -13 15 -55 0 -32 4 -55 10 -55 7 0 10 22 8 58 -3 48 -7 59 -25 67 -16 7
-23 18 -23 37 0 16 -4 28 -10 28 -6 0 -10 -38 -10 -95z"/>
<path d="M11180 7325 c-11 -13 -8 -15 21 -13 26 2 34 -1 37 -16 2 -11 -4 -26
-14 -33 -18 -13 -18 -15 -1 -24 21 -12 23 -57 2 -65 -8 -4 -22 -1 -29 5 -9 8
-16 8 -20 2 -6 -10 23 -31 43 -31 5 0 16 7 25 15 17 17 20 142 4 163 -14 17
-53 15 -68 -3z"/>
<path d="M11382 7328 c-7 -7 -12 -20 -12 -29 0 -10 -6 -20 -12 -23 -10 -5 -10
-7 0 -12 7 -3 12 -26 12 -60 0 -30 5 -54 10 -54 6 0 10 25 10 55 0 42 3 55 15
55 8 0 15 5 15 10 0 6 -7 10 -15 10 -8 0 -15 7 -15 15 0 9 7 18 15 21 8 4 15
10 15 15 0 13 -24 11 -38 -3z"/>
<path d="M11510 7251 c0 -53 4 -93 11 -96 6 -4 11 -5 12 -4 7 13 -6 189 -14
189 -5 0 -9 -40 -9 -89z"/>
<path d="M11450 7320 c0 -5 5 -10 10 -10 6 0 10 5 10 10 0 6 -4 10 -10 10 -5
0 -10 -4 -10 -10z"/>
<path d="M9503 7283 c-19 -7 -16 -24 4 -21 26 5 27 -26 1 -37 -44 -19 -30 -75
18 -75 23 0 24 4 24 58 0 32 -5 63 -12 70 -13 13 -16 13 -35 5z m27 -94 c0
-24 -23 -21 -28 4 -2 10 3 17 12 17 10 0 16 -9 16 -21z"/>
<path d="M9600 7215 c0 -37 4 -65 10 -65 6 0 10 25 10 55 0 42 3 55 15 55 12
0 15 -13 15 -55 0 -30 5 -55 10 -55 14 0 12 104 -2 118 -7 7 -22 12 -35 12
-22 0 -23 -4 -23 -65z"/>
<path d="M9890 7261 c-9 -17 -6 -24 15 -43 34 -30 33 -52 -2 -43 -24 6 -25 4
-13 -10 20 -24 54 -15 58 16 2 19 -4 31 -22 43 -33 21 -34 40 -1 33 16 -3 24
0 22 7 -7 20 -45 18 -57 -3z"/>
<path d="M10082 7268 c-7 -7 -12 -31 -12 -54 0 -82 62 -86 68 -5 4 59 -25 90
-56 59z m38 -53 c0 -33 -4 -45 -15 -45 -11 0 -15 12 -15 45 0 33 4 45 15 45
11 0 15 -12 15 -45z"/>
<path d="M10180 7215 c0 -37 4 -65 10 -65 6 0 10 25 10 55 0 48 2 55 20 55 11
0 20 5 20 10 0 6 -13 10 -30 10 l-30 0 0 -65z"/>
<path d="M10272 7268 c-17 -17 -15 -93 3 -108 15 -12 55 -5 55 11 0 5 -10 8
-22 6 -14 -1 -23 4 -26 16 -3 13 3 17 27 17 26 0 31 4 31 23 0 27 -17 47 -40
47 -9 0 -21 -5 -28 -12z m48 -23 c0 -8 -9 -15 -20 -15 -20 0 -26 11 -13 23 12
13 33 7 33 -8z"/>
<path d="M10370 7261 c-9 -17 -6 -24 15 -43 34 -30 33 -52 -2 -43 -24 6 -25 4
-13 -10 20 -24 54 -15 58 16 2 19 -4 31 -22 43 -33 21 -34 40 -1 33 16 -3 24
0 22 7 -7 20 -45 18 -57 -3z"/>
<path d="M10742 7268 c-17 -17 -15 -93 3 -108 15 -12 55 -5 55 11 0 5 -10 8
-22 6 -14 -1 -23 4 -26 16 -3 13 3 17 27 17 26 0 31 4 31 23 0 27 -17 47 -40
47 -9 0 -21 -5 -28 -12z m48 -23 c0 -8 -9 -15 -20 -15 -20 0 -26 11 -13 23 12
13 33 7 33 -8z"/>
<path d="M10900 7215 c0 -37 4 -65 10 -65 6 0 10 25 10 55 0 48 2 55 20 55 18
0 20 -7 20 -55 0 -30 5 -55 10 -55 6 0 10 25 10 56 0 47 3 55 18 52 13 -2 18
-15 20 -56 2 -28 7 -52 13 -52 13 0 11 104 -3 118 -7 7 -38 12 -70 12 l-58 0
0 -65z"/>
<path d="M11060 7185 c0 -57 4 -95 10 -95 6 0 10 12 10 28 0 19 7 30 23 37 17
8 23 20 25 53 4 50 -10 72 -44 72 -24 0 -24 -2 -24 -95z m50 30 c0 -33 -4 -45
-15 -45 -11 0 -15 12 -15 45 0 33 4 45 15 45 11 0 15 -12 15 -45z"/>
<path d="M11450 7215 c0 -37 4 -65 10 -65 6 0 10 28 10 65 0 37 -4 65 -10 65
-6 0 -10 -28 -10 -65z"/>
<path d="M11572 7268 c-17 -17 -15 -93 3 -108 15 -12 55 -5 55 11 0 5 -10 8
-22 6 -14 -1 -23 4 -26 16 -3 13 3 17 27 17 26 0 31 4 31 23 0 27 -17 47 -40
47 -9 0 -21 -5 -28 -12z m48 -23 c0 -8 -9 -15 -20 -15 -20 0 -26 11 -13 23 12
13 33 7 33 -8z"/>
<path d="M11670 7261 c-9 -17 -6 -24 15 -43 34 -30 33 -52 -2 -43 -24 6 -25 4
-13 -10 20 -24 54 -15 58 16 2 19 -4 31 -22 43 -33 21 -34 40 -1 33 16 -3 24
0 22 7 -7 20 -45 18 -57 -3z"/>
<path d="M1520 7730 c0 -53 -2 -60 -20 -60 -11 0 -20 -7 -20 -15 0 -8 9 -15
20 -15 18 0 20 -7 20 -84 0 -79 2 -86 26 -105 31 -25 64 -27 64 -6 0 8 -8 15
-18 15 -33 0 -42 21 -42 102 l0 78 30 0 c20 0 30 5 30 15 0 10 -10 15 -30 15
l-30 0 0 60 c0 47 -3 60 -15 60 -12 0 -15 -13 -15 -60z"/>
<path d="M2060 7730 c0 -53 -2 -60 -20 -60 -11 0 -20 -7 -20 -15 0 -8 9 -15
20 -15 18 0 20 -7 20 -84 0 -79 2 -86 26 -105 31 -25 64 -27 64 -6 0 8 -8 15
-18 15 -33 0 -42 21 -42 102 l0 78 30 0 c20 0 30 5 30 15 0 10 -10 15 -30 15
l-30 0 0 60 c0 47 -3 60 -15 60 -12 0 -15 -13 -15 -60z"/>
<path d="M2470 7632 c0 -135 2 -150 20 -170 38 -41 92 -40 130 1 18 19 20 35
20 169 0 125 -2 148 -15 148 -13 0 -15 -23 -15 -143 0 -127 -2 -146 -18 -160
-23 -21 -56 -22 -76 -1 -13 13 -16 42 -16 160 0 121 -2 144 -15 144 -13 0 -15
-23 -15 -148z"/>
<path d="M2744 7766 c-34 -15 -44 -32 -44 -77 0 -22 15 -45 60 -94 63 -68 72
-91 42 -118 -25 -23 -41 -21 -69 5 -20 19 -25 20 -34 8 -6 -11 -2 -21 17 -37
54 -49 134 -14 134 59 0 35 -7 47 -61 103 -52 54 -60 68 -55 89 8 33 50 45 75
22 21 -19 41 -21 41 -3 0 17 -28 43 -55 50 -11 3 -34 0 -51 -7z"/>
<path d="M1070 7600 l0 -170 55 0 c46 0 60 4 80 25 24 23 25 30 25 145 0 115
-1 122 -25 145 -20 21 -34 25 -80 25 l-55 0 0 -170z m114 124 c13 -12 16 -39
16 -124 0 -123 -8 -140 -66 -140 l-34 0 0 140 0 140 34 0 c19 0 42 -7 50 -16z"/>
<path d="M2910 7600 l0 -170 55 0 c46 0 60 4 80 25 29 28 35 98 11 130 -12 17
-12 22 0 39 23 33 18 93 -11 121 -20 21 -34 25 -80 25 l-55 0 0 -170z m114
124 c9 -8 16 -28 16 -44 0 -38 -24 -60 -66 -60 l-34 0 0 60 0 60 34 0 c19 0
42 -7 50 -16z m0 -150 c9 -8 16 -31 16 -49 0 -43 -22 -65 -66 -65 l-34 0 0 65
0 65 34 0 c19 0 42 -7 50 -16z"/>
<path d="M1312 7657 c-19 -20 -22 -35 -22 -101 0 -68 3 -80 25 -101 28 -29 51
-31 84 -9 29 21 14 41 -18 25 -31 -17 -61 2 -61 39 0 30 1 30 55 30 l55 0 0
48 c0 38 -5 53 -23 70 -30 28 -68 28 -95 -1z m76 -19 c7 -7 12 -25 12 -40 0
-26 -3 -28 -40 -28 -37 0 -40 2 -40 28 0 31 16 52 40 52 9 0 21 -5 28 -12z"/>
<path d="M1672 7657 c-19 -20 -22 -35 -22 -101 0 -68 3 -80 25 -101 28 -29 51
-31 84 -9 29 21 14 41 -18 25 -31 -17 -61 2 -61 39 0 30 1 30 55 30 l55 0 0
48 c0 38 -5 53 -23 70 -30 28 -68 28 -95 -1z m76 -19 c7 -7 12 -25 12 -40 0
-26 -3 -28 -40 -28 -37 0 -40 2 -40 28 0 31 16 52 40 52 9 0 21 -5 28 -12z"/>
<path d="M1875 7655 c-22 -22 -25 -32 -25 -105 0 -67 3 -83 20 -100 23 -23 72
-26 90 -5 18 22 4 36 -25 23 -41 -19 -55 3 -55 88 0 60 3 75 18 83 11 6 24 6
33 0 21 -13 39 -11 39 6 0 16 -30 35 -55 35 -9 0 -27 -11 -40 -25z"/>
<path d="M2210 7660 c-34 -34 -26 -70 27 -116 33 -29 45 -45 40 -58 -10 -25
-35 -31 -56 -12 -24 22 -33 20 -29 -6 4 -32 51 -47 86 -27 20 11 28 24 30 51
3 33 -1 40 -42 70 -53 38 -59 71 -13 76 15 2 27 -1 27 -7 0 -6 7 -11 15 -11
22 0 18 27 -7 44 -30 21 -54 20 -78 -4z"/>
<path d="M2270 7080 c0 -53 -2 -60 -20 -60 -11 0 -20 -7 -20 -15 0 -8 9 -15
20 -15 18 0 20 -7 20 -84 0 -79 2 -86 26 -105 31 -25 64 -27 64 -6 0 8 -8 15
-18 15 -33 0 -42 21 -42 102 l0 78 30 0 c20 0 30 5 30 15 0 10 -10 15 -30 15
l-30 0 0 60 c0 47 -3 60 -15 60 -12 0 -15 -13 -15 -60z"/>
<path d="M2404 7099 c-9 -15 11 -33 30 -26 9 4 13 13 10 22 -7 17 -30 20 -40
4z"/>
<path d="M1085 7005 c-22 -22 -25 -32 -25 -105 0 -67 3 -83 20 -100 23 -23 72
-26 90 -5 18 22 4 36 -25 23 -41 -19 -55 3 -55 88 0 60 3 75 18 83 11 6 24 6
33 0 21 -13 39 -11 39 6 0 16 -30 35 -55 35 -9 0 -27 -11 -40 -25z"/>
<path d="M1262 7007 c-19 -20 -22 -35 -22 -103 0 -71 3 -83 23 -102 30 -28 68
-28 95 1 19 20 22 35 22 103 0 71 -3 83 -23 102 -30 28 -68 28 -95 -1z m77
-21 c7 -9 11 -42 9 -87 -2 -55 -7 -74 -20 -83 -13 -8 -23 -8 -35 0 -14 9 -19
28 -21 83 -3 76 6 101 38 101 10 0 23 -6 29 -14z"/>
<path d="M1882 7007 c-19 -20 -22 -35 -22 -101 0 -68 3 -80 25 -101 28 -29 51
-31 84 -9 29 21 14 41 -18 25 -31 -17 -61 2 -61 39 0 30 1 30 55 30 l55 0 0
48 c0 38 -5 53 -23 70 -30 28 -68 28 -95 -1z m76 -19 c7 -7 12 -25 12 -40 0
-26 -3 -28 -40 -28 -37 0 -40 2 -40 28 0 31 16 52 40 52 9 0 21 -5 28 -12z"/>
<path d="M2085 7005 c-22 -22 -25 -32 -25 -105 0 -67 3 -83 20 -100 23 -23 72
-26 90 -5 18 22 4 36 -25 23 -41 -19 -55 3 -55 88 0 60 3 75 18 83 11 6 24 6
33 0 21 -13 39 -11 39 6 0 16 -30 35 -55 35 -9 0 -27 -11 -40 -25z"/>
<path d="M2416 7023 c-3 -3 -6 -60 -6 -125 0 -98 3 -118 15 -118 12 0 15 20
15 119 0 109 -6 142 -24 124z"/>
<path d="M2532 7007 c-19 -20 -22 -35 -22 -103 0 -71 3 -83 23 -102 30 -28 68
-28 95 1 19 20 22 35 22 103 0 71 -3 83 -23 102 -30 28 -68 28 -95 -1z m77
-21 c7 -9 11 -42 9 -87 -2 -55 -7 -74 -20 -83 -13 -8 -23 -8 -35 0 -14 9 -19
28 -21 83 -3 76 6 101 38 101 10 0 23 -6 29 -14z"/>
<path d="M2940 7010 c-34 -34 -26 -70 27 -116 33 -29 45 -45 40 -58 -10 -25
-35 -31 -56 -12 -24 22 -33 20 -29 -6 4 -32 51 -47 86 -27 20 11 28 24 30 51
3 33 -1 40 -42 70 -53 38 -59 71 -13 76 15 2 27 -1 27 -7 0 -6 7 -11 15 -11
22 0 18 27 -7 44 -30 21 -54 20 -78 -4z"/>
<path d="M1450 6900 c0 -100 3 -120 15 -120 12 0 15 18 15 105 l0 105 28 0
c45 0 52 -15 52 -117 0 -76 3 -93 15 -93 12 0 15 18 15 98 0 90 -2 100 -23
120 -17 16 -36 22 -70 22 l-47 0 0 -120z"/>
<path d="M1660 6900 c0 -100 3 -120 15 -120 12 0 15 18 15 105 l0 105 28 0
c45 0 52 -15 52 -117 0 -76 3 -93 15 -93 12 0 15 18 15 98 0 90 -2 100 -23
120 -17 16 -36 22 -70 22 l-47 0 0 -120z"/>
<path d="M2720 6900 c0 -100 3 -120 15 -120 12 0 15 18 15 105 l0 105 28 0
c45 0 52 -15 52 -117 0 -76 3 -93 15 -93 12 0 15 18 15 98 0 90 -2 100 -23
120 -17 16 -36 22 -70 22 l-47 0 0 -120z"/>
<path d="M13295 7530 c0 -294 1 -415 2 -267 2 147 2 387 0 535 -1 147 -2 26
-2 -268z"/>
<path d="M16595 7530 c0 -294 1 -415 2 -267 2 147 2 387 0 535 -1 147 -2 26
-2 -268z"/>
<path d="M13295 6225 c0 -291 1 -409 2 -262 2 148 2 386 0 530 -1 144 -2 24
-2 -268z"/>
<path d="M16595 6225 c0 -291 1 -409 2 -262 2 148 2 386 0 530 -1 144 -2 24
-2 -268z"/>
<path d="M2595 4920 c0 -294 1 -415 2 -267 2 147 2 387 0 535 -1 147 -2 26 -2
-268z"/>
<path d="M6195 4920 c0 -294 1 -415 2 -267 2 147 2 387 0 535 -1 147 -2 26 -2
-268z"/>
<path d="M9892 5268 l-2 -188 -960 0 -960 0 0 -455 0 -455 1605 0 1605 0 0
195 0 195 360 0 360 0 0 -100 0 -100 210 105 210 105 0 -235 0 -235 485 0 485
0 0 -425 0 -425 -1210 0 -1210 0 0 -510 0 -510 1210 0 1209 0 4 -127 3 -128 2
128 2 127 430 0 430 0 0 215 c0 138 4 215 10 215 6 0 87 -38 180 -85 l170 -85
0 85 0 85 330 0 330 0 0 -220 0 -220 705 0 704 0 4 -122 3 -123 2 123 2 122
710 0 710 0 0 515 0 515 -710 0 -710 0 -3 448 -2 447 -3 -447 -2 -448 -705 0
-705 0 0 -265 0 -265 -330 0 -330 0 0 115 0 115 -180 -90 -180 -90 0 240 0
240 -430 0 -430 0 0 425 0 425 1155 0 1155 0 0 510 0 510 -1155 0 -1155 0 -3
168 -3 167 -2 -167 -2 -168 -485 0 -485 0 0 -255 0 -255 -210 105 -210 105 0
-100 0 -100 -360 0 -360 0 0 230 0 230 -640 0 -640 0 -3 188 -2 187 -3 -187z
m5688 -392 c0 -213 0 -214 -22 -221 -20 -6 -20 -8 -5 -12 21 -5 23 -33 3 -33
-21 0 -29 -17 -22 -46 4 -15 14 -24 26 -24 19 0 20 -7 20 -205 l0 -205 -1615
0 -1615 0 0 30 0 30 70 0 c40 0 70 4 70 10 0 6 -30 10 -70 10 l-70 0 0 440 0
440 1615 0 1615 0 0 -214z m-4430 -251 l0 -425 -1575 0 -1575 0 0 425 0 425
1575 0 1575 0 0 -425z m4420 -50 c0 -8 -4 -15 -10 -15 -5 0 -10 7 -10 15 0 8
5 15 10 15 6 0 10 -7 10 -15z m-1440 -1589 l0 -234 -30 -12 c-37 -15 -37 -21
0 -42 l30 -17 -2 -208 -3 -208 -1610 0 -1610 0 -3 478 -2 477 1615 0 1615 0 0
-234z m3860 -251 l0 -485 -1390 0 -1390 0 0 485 0 485 1390 0 1390 0 0 -485z"/>
<path d="M12382 4988 c-7 -7 -12 -37 -12 -68 0 -31 5 -61 12 -68 16 -16 43
-15 58 3 11 13 8 14 -19 9 l-31 -6 0 62 0 63 31 -7 c27 -5 30 -4 19 9 -15 18
-42 19 -58 3z"/>
<path d="M12660 4981 c0 -11 -6 -22 -12 -25 -10 -5 -10 -7 0 -12 6 -3 12 -23
12 -44 0 -37 23 -71 38 -55 4 4 1 10 -5 12 -8 3 -13 21 -13 43 0 21 6 41 13
44 10 5 10 7 0 12 -7 3 -13 14 -13 25 0 10 -4 19 -10 19 -5 0 -10 -9 -10 -19z"/>
<path d="M13120 4914 c0 -54 4 -83 10 -79 6 3 10 15 10 25 0 32 17 31 30 0 7
-17 16 -30 21 -30 5 0 0 18 -11 39 -17 34 -18 41 -5 51 8 7 15 17 15 23 0 6
-11 0 -25 -13 l-25 -23 0 46 c0 26 -4 47 -10 47 -6 0 -10 -35 -10 -86z"/>
<path d="M13250 4931 c0 -70 7 -104 19 -97 10 6 1 166 -10 166 -5 0 -9 -31 -9
-69z"/>
<path d="M13300 4931 c0 -70 7 -104 19 -97 10 6 1 166 -10 166 -5 0 -9 -31 -9
-69z"/>
<path d="M13840 4981 c0 -11 -6 -22 -12 -25 -10 -5 -10 -7 0 -12 6 -3 12 -23
12 -44 0 -37 23 -71 38 -55 4 4 1 10 -5 12 -8 3 -13 21 -13 43 0 21 6 41 13
44 10 5 10 7 0 12 -7 3 -13 14 -13 25 0 10 -4 19 -10 19 -5 0 -10 -9 -10 -19z"/>
<path d="M14050 4982 c0 -9 -10 -22 -22 -27 -17 -7 -24 -20 -26 -48 -4 -45 11
-67 44 -67 23 0 24 2 24 80 0 47 -4 80 -10 80 -5 0 -10 -8 -10 -18z m0 -82 c0
-29 -4 -40 -15 -40 -11 0 -15 11 -15 40 0 29 4 40 15 40 11 0 15 -11 15 -40z"/>
<path d="M14410 4982 c0 -9 -10 -22 -22 -27 -17 -7 -24 -20 -26 -48 -4 -45 11
-67 44 -67 23 0 24 2 24 80 0 47 -4 80 -10 80 -5 0 -10 -8 -10 -18z m0 -82 c0
-29 -4 -40 -15 -40 -11 0 -15 11 -15 40 0 29 4 40 15 40 11 0 15 -11 15 -40z"/>
<path d="M13205 4980 c-3 -5 1 -10 10 -10 9 0 13 5 10 10 -3 6 -8 10 -10 10
-2 0 -7 -4 -10 -10z"/>
<path d="M12742 4948 c-7 -7 -12 -29 -12 -49 0 -73 62 -78 68 -5 5 54 -26 84
-56 54z m38 -48 c0 -29 -4 -40 -15 -40 -11 0 -15 11 -15 40 0 29 4 40 15 40
11 0 15 -11 15 -40z"/>
<path d="M12830 4900 c0 -33 4 -60 10 -60 6 0 10 23 10 50 0 38 4 50 15 50 11
0 15 -12 15 -50 0 -27 5 -50 10 -50 6 0 10 23 10 50 0 38 4 50 15 50 11 0 15
-12 15 -50 0 -27 5 -50 10 -50 14 0 12 94 -2 108 -7 7 -34 12 -60 12 l-48 0 0
-60z"/>
<path d="M13210 4901 c0 -34 4 -61 10 -61 6 0 10 24 10 54 0 30 -4 58 -10 61
-6 4 -10 -17 -10 -54z"/>
<path d="M13580 4900 c0 -33 4 -60 10 -60 6 0 10 23 10 50 0 44 3 50 21 50 11
0 17 5 14 10 -3 6 -17 10 -31 10 -23 0 -24 -3 -24 -60z"/>
<path d="M13662 4948 c-17 -17 -15 -83 3 -98 9 -7 22 -9 32 -4 16 7 15 8 -4
11 -32 6 -30 33 2 33 19 0 25 5 25 23 0 24 -17 47 -35 47 -6 0 -16 -5 -23 -12z
m38 -23 c0 -8 -7 -15 -15 -15 -8 0 -15 7 -15 15 0 8 7 15 15 15 8 0 15 -7 15
-15z"/>
<path d="M13755 4951 c-3 -6 1 -11 9 -11 9 0 16 -7 16 -15 0 -8 -6 -15 -14
-15 -21 0 -29 -17 -22 -46 5 -17 13 -24 32 -24 24 0 25 2 22 57 -2 44 -7 59
-20 61 -9 2 -19 -2 -23 -7z m25 -76 c0 -8 -4 -15 -10 -15 -5 0 -10 7 -10 15 0
8 5 15 10 15 6 0 10 -7 10 -15z"/>
<path d="M13922 4948 c-17 -17 -15 -83 3 -98 9 -7 22 -9 32 -4 16 7 15 8 -4
11 -32 6 -30 33 2 33 19 0 25 5 25 23 0 24 -17 47 -35 47 -6 0 -16 -5 -23 -12z
m38 -23 c0 -8 -7 -15 -15 -15 -8 0 -15 7 -15 15 0 8 7 15 15 15 8 0 15 -7 15
-15z"/>
<path d="M14260 4900 c0 -33 4 -60 10 -60 6 0 10 23 10 50 0 28 5 50 10 50 6
0 10 -22 10 -50 0 -27 5 -50 10 -50 11 0 14 78 4 104 -3 9 -17 16 -30 16 -23
0 -24 -3 -24 -60z"/>
<path d="M14472 4948 c-17 -17 -15 -83 3 -98 9 -7 22 -9 32 -4 16 7 15 8 -4
11 -32 6 -30 33 2 33 19 0 25 5 25 23 0 24 -17 47 -35 47 -6 0 -16 -5 -23 -12z
m38 -23 c0 -8 -7 -15 -15 -15 -8 0 -15 7 -15 15 0 8 7 15 15 15 8 0 15 -7 15
-15z"/>
<path d="M14560 4900 c0 -33 4 -60 10 -60 6 0 10 23 10 50 0 44 3 50 21 50 11
0 17 5 14 10 -3 6 -17 10 -31 10 -23 0 -24 -3 -24 -60z"/>
<path d="M12482 4898 c3 -49 5 -53 31 -56 27 -3 27 -2 27 52 0 31 -4 56 -10
56 -5 0 -10 -20 -10 -45 0 -25 -4 -45 -10 -45 -5 0 -10 20 -10 45 0 25 -5 45
-11 45 -6 0 -9 -21 -7 -52z"/>
<path d="M12573 4933 c-4 -10 2 -23 15 -34 28 -22 29 -43 1 -36 -13 3 -19 1
-16 -6 2 -7 15 -12 28 -12 32 0 39 39 10 55 -29 15 -28 44 0 35 15 -5 19 -4
15 4 -11 17 -46 13 -53 -6z"/>
<path d="M13023 4933 c-4 -10 2 -23 15 -34 28 -22 29 -43 1 -36 -13 3 -19 1
-16 -6 2 -7 15 -12 28 -12 32 0 39 39 10 55 -29 15 -28 44 0 35 15 -5 19 -4
15 4 -11 17 -46 13 -53 -6z"/>
<path d="M13353 4933 c-4 -10 2 -23 15 -34 28 -22 29 -43 1 -36 -13 3 -19 1
-16 -6 2 -7 15 -12 28 -12 32 0 39 39 10 55 -29 15 -28 44 0 35 15 -5 19 -4
15 4 -11 17 -46 13 -53 -6z"/>
<path d="M13497 4943 c-12 -11 -8 -78 5 -91 15 -15 48 -16 48 -2 0 6 -8 10
-17 8 -15 -2 -18 4 -18 37 0 32 4 40 18 39 9 -1 17 2 17 7 0 10 -43 12 -53 2z"/>
<path d="M14162 4898 c3 -49 5 -53 31 -56 27 -3 27 -2 27 52 0 31 -4 56 -10
56 -5 0 -10 -20 -10 -45 0 -25 -4 -45 -10 -45 -5 0 -10 20 -10 45 0 25 -5 45
-11 45 -6 0 -9 -21 -7 -52z"/>
<path d="M13363 4620 c-17 -50 -28 -90 -23 -90 4 0 22 38 39 86 34 94 34 94
24 94 -5 0 -22 -41 -40 -90z"/>
<path d="M13823 4620 c-17 -50 -28 -90 -23 -90 4 0 22 38 39 86 34 94 34 94
24 94 -5 0 -22 -41 -40 -90z"/>
<path d="M15063 4620 c-17 -50 -28 -90 -23 -90 4 0 22 38 39 86 34 94 34 94
24 94 -5 0 -22 -41 -40 -90z"/>
<path d="M13480 4682 c0 -9 -10 -22 -22 -27 -17 -7 -24 -20 -26 -48 -4 -45 11
-67 44 -67 23 0 24 2 24 80 0 47 -4 80 -10 80 -5 0 -10 -8 -10 -18z m0 -82 c0
-29 -4 -40 -15 -40 -11 0 -15 11 -15 40 0 29 4 40 15 40 11 0 15 -11 15 -40z"/>
<path d="M13630 4681 c0 -11 -6 -22 -12 -25 -10 -5 -10 -7 0 -12 6 -3 12 -23
12 -44 0 -37 23 -71 38 -55 4 4 1 10 -5 12 -8 3 -13 21 -13 43 0 21 6 41 13
44 10 5 10 7 0 12 -7 3 -13 14 -13 25 0 10 -4 19 -10 19 -5 0 -10 -9 -10 -19z"/>
<path d="M14710 4614 c0 -54 4 -83 10 -79 6 3 10 15 10 25 0 32 17 31 30 0 7
-17 16 -30 21 -30 5 0 0 18 -11 39 -17 34 -18 41 -5 51 8 7 15 17 15 23 0 6
-11 0 -25 -13 l-25 -23 0 46 c0 26 -4 47 -10 47 -6 0 -10 -35 -10 -86z"/>
<path d="M14850 4631 c0 -70 7 -104 19 -97 10 6 1 166 -10 166 -5 0 -9 -31 -9
-69z"/>
<path d="M14900 4631 c0 -70 7 -104 19 -97 10 6 1 166 -10 166 -5 0 -9 -31 -9
-69z"/>
<path d="M15430 4682 c0 -9 -10 -22 -22 -27 -17 -7 -24 -20 -26 -48 -4 -45 11
-67 44 -67 23 0 24 2 24 80 0 47 -4 80 -10 80 -5 0 -10 -8 -10 -18z m0 -82 c0
-29 -4 -40 -15 -40 -11 0 -15 11 -15 40 0 29 4 40 15 40 11 0 15 -11 15 -40z"/>
<path d="M12645 4680 c-3 -5 1 -10 10 -10 9 0 13 5 10 10 -3 6 -8 10 -10 10
-2 0 -7 -4 -10 -10z"/>
<path d="M14365 4680 c-3 -5 1 -10 10 -10 9 0 13 5 10 10 -3 6 -8 10 -10 10
-2 0 -7 -4 -10 -10z"/>
<path d="M14805 4680 c-3 -5 1 -10 10 -10 9 0 13 5 10 10 -3 6 -8 10 -10 10
-2 0 -7 -4 -10 -10z"/>
<path d="M15485 4680 c-3 -5 1 -10 10 -10 9 0 13 5 10 10 -3 6 -8 10 -10 10
-2 0 -7 -4 -10 -10z"/>
<path d="M12650 4601 c0 -34 4 -61 10 -61 6 0 10 24 10 54 0 30 -4 58 -10 61
-6 4 -10 -17 -10 -54z"/>
<path d="M12912 4648 c-17 -17 -15 -83 3 -98 9 -7 22 -9 32 -4 16 7 15 8 -4
11 -32 6 -30 33 2 33 19 0 25 5 25 23 0 24 -17 47 -35 47 -6 0 -16 -5 -23 -12z
m38 -23 c0 -8 -7 -15 -15 -15 -8 0 -15 7 -15 15 0 8 7 15 15 15 8 0 15 -7 15
-15z"/>
<path d="M13000 4600 c0 -33 4 -60 10 -60 6 0 10 23 10 50 0 44 3 50 21 50 11
0 17 5 14 10 -3 6 -17 10 -31 10 -23 0 -24 -3 -24 -60z"/>
<path d="M13070 4653 c0 -25 32 -113 39 -108 11 6 35 104 28 112 -3 3 -11 -15
-18 -38 l-12 -44 -13 39 c-15 41 -24 56 -24 39z"/>
<path d="M13172 4648 c-17 -17 -15 -83 3 -98 9 -7 22 -9 32 -4 16 7 15 8 -4
11 -32 6 -30 33 2 33 19 0 25 5 25 23 0 24 -17 47 -35 47 -6 0 -16 -5 -23 -12z
m38 -23 c0 -8 -7 -15 -15 -15 -8 0 -15 7 -15 15 0 8 7 15 15 15 8 0 15 -7 15
-15z"/>
<path d="M13260 4600 c0 -33 4 -60 10 -60 6 0 10 23 10 50 0 44 3 50 21 50 11
0 17 5 14 10 -3 6 -17 10 -31 10 -23 0 -24 -3 -24 -60z"/>
<path d="M13545 4651 c-3 -6 1 -11 9 -11 9 0 16 -7 16 -15 0 -8 -6 -15 -14
-15 -21 0 -29 -17 -22 -46 5 -17 13 -24 32 -24 24 0 25 2 22 57 -2 44 -7 59
-20 61 -9 2 -19 -2 -23 -7z m25 -76 c0 -8 -4 -15 -10 -15 -5 0 -10 7 -10 15 0
8 5 15 10 15 6 0 10 -7 10 -15z"/>
<path d="M13715 4651 c-3 -6 1 -11 9 -11 9 0 16 -7 16 -15 0 -8 -6 -15 -14
-15 -21 0 -29 -17 -22 -46 5 -17 13 -24 32 -24 24 0 25 2 22 57 -2 44 -7 59
-20 61 -9 2 -19 -2 -23 -7z m25 -76 c0 -8 -4 -15 -10 -15 -5 0 -10 7 -10 15 0
8 5 15 10 15 6 0 10 -7 10 -15z"/>
<path d="M13901 4646 c-7 -8 -11 -32 -9 -53 2 -28 9 -41 26 -48 27 -12 25 -41
-3 -37 -15 3 -17 1 -9 -8 7 -7 20 -10 30 -8 16 3 19 15 22 86 3 81 2 82 -21
82 -14 0 -30 -6 -36 -14z m39 -46 c0 -29 -4 -40 -15 -40 -11 0 -15 11 -15 40
0 29 4 40 15 40 11 0 15 -11 15 -40z"/>
<path d="M14012 4648 c-17 -17 -15 -83 3 -98 9 -7 22 -9 32 -4 16 7 15 8 -4
11 -32 6 -30 33 2 33 19 0 25 5 25 23 0 24 -17 47 -35 47 -6 0 -16 -5 -23 -12z
m38 -23 c0 -8 -7 -15 -15 -15 -8 0 -15 7 -15 15 0 8 7 15 15 15 8 0 15 -7 15
-15z"/>
<path d="M14100 4600 c0 -33 4 -60 10 -60 6 0 10 23 10 50 0 28 5 50 10 50 6
0 10 -22 10 -50 0 -27 5 -50 10 -50 11 0 14 78 4 104 -3 9 -17 16 -30 16 -23
0 -24 -3 -24 -60z"/>
<path d="M14202 4648 c-17 -17 -15 -83 3 -98 9 -7 22 -9 32 -4 16 7 15 8 -4
11 -32 6 -30 33 2 33 19 0 25 5 25 23 0 24 -17 47 -35 47 -6 0 -16 -5 -23 -12z
m38 -23 c0 -8 -7 -15 -15 -15 -8 0 -15 7 -15 15 0 8 7 15 15 15 8 0 15 -7 15
-15z"/>
<path d="M14290 4600 c0 -33 4 -60 10 -60 6 0 10 23 10 50 0 44 3 50 21 50 11
0 17 5 14 10 -3 6 -17 10 -31 10 -23 0 -24 -3 -24 -60z"/>
<path d="M14370 4601 c0 -34 4 -61 10 -61 6 0 10 24 10 54 0 30 -4 58 -10 61
-6 4 -10 -17 -10 -54z"/>
<path d="M14810 4601 c0 -34 4 -61 10 -61 6 0 10 24 10 54 0 30 -4 58 -10 61
-6 4 -10 -17 -10 -54z"/>
<path d="M15140 4600 c0 -33 4 -60 10 -60 6 0 10 23 10 50 0 38 4 50 15 50 11
0 15 -12 15 -50 0 -27 5 -50 10 -50 6 0 10 23 10 50 0 38 4 50 15 50 11 0 15
-12 15 -50 0 -27 5 -50 10 -50 14 0 12 94 -2 108 -7 7 -34 12 -60 12 l-48 0 0
-60z"/>
<path d="M15292 4648 c-17 -17 -15 -83 3 -98 9 -7 22 -9 32 -4 16 7 15 8 -4
11 -32 6 -30 33 2 33 19 0 25 5 25 23 0 24 -17 47 -35 47 -6 0 -16 -5 -23 -12z
m38 -23 c0 -8 -7 -15 -15 -15 -8 0 -15 7 -15 15 0 8 7 15 15 15 8 0 15 -7 15
-15z"/>
<path d="M15490 4601 c0 -34 4 -61 10 -61 6 0 10 24 10 54 0 30 -4 58 -10 61
-6 4 -10 -17 -10 -54z"/>
<path d="M12373 4633 c-4 -10 2 -23 15 -34 28 -22 29 -43 1 -36 -13 3 -19 1
-16 -6 2 -7 15 -12 28 -12 32 0 39 39 10 55 -29 15 -28 44 0 35 15 -5 19 -4
15 4 -11 17 -46 13 -53 -6z"/>
<path d="M12462 4598 c3 -49 5 -53 31 -56 27 -3 27 -2 27 52 0 31 -4 56 -10
56 -5 0 -10 -20 -10 -45 0 -25 -4 -45 -10 -45 -5 0 -10 20 -10 45 0 25 -5 45
-11 45 -6 0 -9 -21 -7 -52z"/>
<path d="M12553 4633 c-4 -10 2 -23 15 -34 28 -22 29 -43 1 -36 -13 3 -19 1
-16 -6 2 -7 15 -12 28 -12 32 0 39 39 10 55 -29 15 -28 44 0 35 15 -5 19 -4
15 4 -11 17 -46 13 -53 -6z"/>
<path d="M12813 4633 c-4 -10 2 -23 15 -34 28 -22 29 -43 1 -36 -13 3 -19 1
-16 -6 2 -7 15 -12 28 -12 32 0 39 39 10 55 -29 15 -28 44 0 35 15 -5 19 -4
15 4 -11 17 -46 13 -53 -6z"/>
<path d="M14417 4643 c-12 -11 -8 -78 5 -91 15 -15 48 -16 48 -2 0 6 -8 10
-17 8 -15 -2 -18 4 -18 37 0 32 4 40 18 39 9 -1 17 2 17 7 0 10 -43 12 -53 2z"/>
<path d="M14623 4633 c-4 -10 2 -23 15 -34 28 -22 29 -43 1 -36 -13 3 -19 1
-16 -6 2 -7 15 -12 28 -12 32 0 39 39 10 55 -29 15 -28 44 0 35 15 -5 19 -4
15 4 -11 17 -46 13 -53 -6z"/>
<path d="M14953 4633 c-4 -10 2 -23 15 -34 28 -22 29 -43 1 -36 -13 3 -19 1
-16 -6 2 -7 15 -12 28 -12 32 0 39 39 10 55 -29 15 -28 44 0 35 15 -5 19 -4
15 4 -11 17 -46 13 -53 -6z"/>
<path d="M12670 4510 c0 -6 30 -10 70 -10 40 0 70 4 70 10 0 6 -30 10 -70 10
-40 0 -70 -4 -70 -10z"/>
<path d="M14470 4510 c0 -6 30 -10 70 -10 40 0 70 4 70 10 0 6 -30 10 -70 10
-40 0 -70 -4 -70 -10z"/>
<path d="M13293 4310 c-17 -50 -28 -90 -23 -90 4 0 22 38 39 86 34 94 34 94
24 94 -5 0 -22 -41 -40 -90z"/>
<path d="M12540 4372 c0 -9 -10 -22 -22 -27 -17 -7 -24 -20 -26 -48 -4 -45 11
-67 44 -67 23 0 24 2 24 80 0 47 -4 80 -10 80 -5 0 -10 -8 -10 -18z m0 -82 c0
-29 -4 -40 -15 -40 -11 0 -15 11 -15 40 0 29 4 40 15 40 11 0 15 -11 15 -40z"/>
<path d="M12595 4370 c-3 -5 1 -10 10 -10 9 0 13 5 10 10 -3 6 -8 10 -10 10
-2 0 -7 -4 -10 -10z"/>
<path d="M12600 4291 c0 -34 4 -61 10 -61 6 0 10 24 10 54 0 30 -4 58 -10 61
-6 4 -10 -17 -10 -54z"/>
<path d="M12822 4338 c-7 -7 -12 -29 -12 -49 0 -73 62 -78 68 -5 5 54 -26 84
-56 54z m38 -48 c0 -29 -4 -40 -15 -40 -11 0 -15 11 -15 40 0 29 4 40 15 40
11 0 15 -11 15 -40z"/>
<path d="M12900 4343 c0 -25 32 -113 39 -108 11 6 35 104 28 112 -3 3 -11 -15
-18 -38 l-12 -44 -13 39 c-15 41 -24 56 -24 39z"/>
<path d="M13002 4338 c-17 -17 -15 -83 3 -98 9 -7 22 -9 32 -4 16 7 15 8 -4
11 -32 6 -30 33 2 33 19 0 25 5 25 23 0 24 -17 47 -35 47 -6 0 -16 -5 -23 -12z
m38 -23 c0 -8 -7 -15 -15 -15 -8 0 -15 7 -15 15 0 8 7 15 15 15 8 0 15 -7 15
-15z"/>
<path d="M13100 4290 c0 -33 4 -60 10 -60 6 0 10 23 10 50 0 44 3 50 21 50 11
0 17 5 14 10 -3 6 -17 10 -31 10 -23 0 -24 -3 -24 -60z"/>
<path d="M13170 4343 c0 -5 6 -31 14 -57 15 -51 12 -73 -13 -94 -14 -11 -14
-12 4 -10 15 2 26 20 43 72 13 38 21 76 19 85 -2 9 -9 -4 -17 -29 l-13 -45
-13 39 c-15 41 -24 56 -24 39z"/>
<path d="M12653 4323 c-4 -10 2 -23 15 -34 28 -22 29 -43 1 -36 -13 3 -19 1
-16 -6 2 -7 15 -12 28 -12 32 0 39 39 10 55 -29 15 -28 44 0 35 15 -5 19 -4
15 4 -11 17 -46 13 -53 -6z"/>
<path d="M12737 4333 c-12 -11 -8 -78 5 -91 15 -15 48 -16 48 -2 0 6 -8 10
-17 8 -15 -2 -18 4 -18 37 0 32 4 40 18 39 9 -1 17 2 17 7 0 10 -43 12 -53 2z"/>
<path d="M8150 4788 c0 -28 56 -247 65 -256 10 -11 21 16 40 99 10 43 21 79
25 79 4 0 15 -36 25 -79 19 -83 30 -110 40 -99 9 9 65 228 65 256 0 12 -4 22
-10 22 -10 0 -24 -44 -41 -132 -6 -32 -15 -58 -18 -58 -4 0 -15 38 -25 84 -30
139 -42 139 -72 0 -10 -46 -21 -84 -25 -84 -3 0 -11 26 -18 58 -22 102 -32
132 -41 132 -6 0 -10 -10 -10 -22z"/>
<path d="M8690 4770 c0 -29 -4 -40 -15 -40 -8 0 -15 -7 -15 -15 0 -8 7 -15 15
-15 12 0 15 -14 15 -68 0 -72 16 -102 53 -102 24 0 21 27 -3 33 -17 4 -20 14
-20 71 0 59 2 66 20 66 11 0 20 7 20 15 0 8 -9 15 -20 15 -17 0 -20 7 -20 40
0 29 -4 40 -15 40 -11 0 -15 -11 -15 -40z"/>
<path d="M9650 4770 c0 -29 -4 -40 -15 -40 -8 0 -15 -7 -15 -15 0 -8 7 -15 15
-15 12 0 15 -14 15 -68 0 -72 16 -102 53 -102 24 0 21 27 -3 33 -17 4 -20 14
-20 71 0 59 2 66 20 66 11 0 20 7 20 15 0 8 -9 15 -20 15 -17 0 -20 7 -20 40
0 29 -4 40 -15 40 -11 0 -15 -11 -15 -40z"/>
<path d="M10420 4670 c0 -115 3 -140 14 -140 10 0 16 13 18 42 2 23 8 43 13
45 6 2 21 -17 33 -42 12 -25 26 -45 32 -45 16 0 12 20 -16 67 l-25 44 25 30
c51 60 25 68 -28 9 l-36 -40 0 85 c0 69 -3 85 -15 85 -13 0 -15 -22 -15 -140z"/>
<path d="M10672 4679 c3 -111 6 -134 20 -143 21 -13 36 0 20 16 -8 8 -12 54
-12 135 0 104 -2 123 -15 123 -13 0 -15 -19 -13 -131z"/>
<path d="M10752 4679 c3 -111 6 -134 20 -143 21 -13 36 0 20 16 -8 8 -12 54
-12 135 0 104 -2 123 -15 123 -13 0 -15 -19 -13 -131z"/>
<path d="M8590 4785 c0 -8 7 -15 15 -15 8 0 15 7 15 15 0 8 -7 15 -15 15 -8 0
-15 -7 -15 -15z"/>
<path d="M10580 4785 c0 -8 7 -15 15 -15 8 0 15 7 15 15 0 8 -7 15 -15 15 -8
0 -15 -7 -15 -15z"/>
<path d="M8460 4631 c0 -83 3 -101 15 -101 12 0 15 16 15 86 l0 86 30 -4 c24
-4 30 -1 28 11 -2 11 -16 17 -46 19 l-42 3 0 -100z"/>
<path d="M8596 4723 c-3 -3 -6 -48 -6 -100 0 -76 3 -93 15 -93 12 0 15 17 15
94 0 87 -7 116 -24 99z"/>
<path d="M8827 4712 c-17 -19 -24 -122 -11 -156 10 -26 41 -38 64 -26 29 15
25 29 -7 27 -24 -2 -29 2 -31 26 -3 26 -1 27 37 27 l41 0 0 43 c0 68 -54 102
-93 59z m61 -45 c3 -23 0 -27 -22 -27 -21 0 -26 5 -26 23 0 13 3 27 7 31 15
14 38 0 41 -27z"/>
<path d="M8980 4710 c-29 -29 -25 -47 19 -87 23 -20 37 -41 34 -49 -6 -17 -35
-18 -50 -3 -16 16 -28 -8 -13 -26 16 -20 55 -19 74 1 27 26 19 60 -19 90 -19
14 -35 33 -35 41 0 19 29 28 43 14 15 -15 27 -14 27 4 0 14 -29 35 -49 35 -6
0 -20 -9 -31 -20z"/>
<path d="M9220 4723 c-29 -10 -40 -37 -40 -98 0 -80 29 -110 84 -89 29 11 18
32 -16 30 l-33 -1 0 65 0 65 33 -1 c17 -1 32 2 32 7 0 7 -34 30 -42 28 -2 0
-10 -3 -18 -6z"/>
<path d="M9330 4647 c0 -97 13 -117 73 -117 l37 0 0 100 c0 82 -3 100 -15 100
-12 0 -15 -16 -15 -86 0 -83 -1 -85 -22 -82 -21 3 -23 9 -26 86 -2 64 -6 82
-17 82 -12 0 -15 -17 -15 -83z"/>
<path d="M9510 4710 c-29 -29 -25 -47 19 -87 23 -20 37 -41 34 -49 -6 -17 -35
-18 -50 -3 -16 16 -28 -8 -13 -26 16 -20 55 -19 74 1 27 26 19 60 -19 90 -19
14 -35 33 -35 41 0 19 29 28 43 14 15 -15 27 -14 27 4 0 14 -29 35 -49 35 -6
0 -20 -9 -31 -20z"/>
<path d="M9787 4712 c-25 -27 -24 -143 1 -165 47 -42 82 -6 82 85 0 50 -4 69
-18 81 -24 22 -45 21 -65 -1z m48 -83 c0 -50 -3 -64 -15 -64 -11 0 -16 14 -18
54 -4 61 3 84 21 78 8 -2 12 -25 12 -68z"/>
<path d="M9930 4630 c0 -82 3 -100 15 -100 12 0 15 16 15 85 l0 85 30 0 30 0
0 -85 c0 -69 3 -85 15 -85 12 0 15 16 15 86 l0 85 28 -3 c27 -3 27 -4 30 -85
2 -65 6 -83 17 -83 12 0 15 17 15 83 0 111 -7 117 -123 117 l-87 0 0 -100z"/>
<path d="M10280 4710 c-29 -29 -25 -47 19 -87 23 -20 37 -41 34 -49 -6 -17
-35 -18 -50 -3 -16 16 -28 -8 -13 -26 16 -20 55 -19 74 1 27 26 19 60 -19 90
-19 14 -35 33 -35 41 0 19 29 28 43 14 15 -15 27 -14 27 4 0 14 -29 35 -49 35
-6 0 -20 -9 -31 -20z"/>
<path d="M10586 4723 c-3 -3 -6 -48 -6 -100 0 -76 3 -93 15 -93 12 0 15 17 15
94 0 87 -7 116 -24 99z"/>
<path d="M10850 4710 c-29 -29 -25 -47 19 -87 23 -20 37 -41 34 -49 -6 -17
-35 -18 -50 -3 -16 16 -28 -8 -13 -26 16 -20 55 -19 74 1 27 26 19 60 -19 90
-19 14 -35 33 -35 41 0 19 29 28 43 14 15 -15 27 -14 27 4 0 14 -29 35 -49 35
-6 0 -20 -9 -31 -20z"/>
<path d="M11061 3086 c-7 -9 -11 -38 -9 -73 3 -54 5 -58 27 -58 13 0 27 7 29
15 4 13 3 13 -11 2 -26 -22 -37 -5 -37 55 0 54 1 55 25 51 28 -6 34 6 9 16
-21 8 -20 8 -33 -8z"/>
<path d="M11321 3078 c0 -16 -7 -28 -13 -28 -10 0 -10 -2 -1 -8 6 -4 13 -25
15 -47 2 -31 8 -41 23 -43 18 -2 18 -2 3 8 -12 7 -18 23 -18 45 0 24 5 35 18
38 15 4 15 5 0 6 -10 1 -18 12 -21 29 l-4 27 -2 -27z"/>
<path d="M11733 3025 c0 -44 2 -70 4 -57 2 12 7 22 10 22 2 0 13 -10 24 -22
22 -28 25 -11 3 20 -15 21 -15 25 2 43 9 10 12 19 6 19 -6 0 -18 -10 -26 -21
-14 -21 -15 -19 -19 27 -2 30 -4 18 -4 -31z"/>
<path d="M11871 3028 c0 -43 2 -78 7 -78 4 0 6 24 4 52 -5 95 -9 104 -11 26z"/>
<path d="M11911 3028 c0 -43 2 -78 7 -78 4 0 6 24 4 52 -5 95 -9 104 -11 26z"/>
<path d="M12120 3076 c0 -18 -6 -25 -22 -28 -20 -3 -23 -9 -23 -48 0 -42 2
-45 28 -48 l27 -3 0 75 c0 42 -2 76 -5 76 -3 0 -5 -11 -5 -24z m0 -77 c0 -33
-3 -40 -17 -37 -32 6 -30 78 2 78 11 0 15 -11 15 -41z"/>
<path d="M12261 3028 c0 -43 2 -78 7 -78 4 0 6 24 4 52 -5 95 -9 104 -11 26z"/>
<path d="M12411 3078 c0 -16 -7 -28 -13 -28 -10 0 -10 -2 -1 -8 6 -4 13 -25
15 -47 2 -31 8 -41 23 -43 18 -2 18 -2 3 8 -12 7 -18 23 -18 45 0 24 5 35 18
38 15 4 15 5 0 6 -10 1 -18 12 -21 29 l-4 27 -2 -27z"/>
<path d="M12590 3076 c0 -18 -6 -25 -22 -28 -20 -3 -23 -9 -23 -48 0 -42 2
-45 28 -48 l27 -3 0 75 c0 42 -2 76 -5 76 -3 0 -5 -11 -5 -24z m0 -77 c0 -33
-3 -40 -17 -37 -32 6 -30 78 2 78 11 0 15 -11 15 -41z"/>
<path d="M12707 3093 c-4 -3 -7 -15 -7 -25 0 -10 -6 -18 -12 -18 -10 0 -10 -2
-1 -8 6 -4 13 -28 16 -52 l4 -45 1 47 c2 35 6 48 20 51 16 4 16 5 0 6 -10 0
-18 8 -18 16 0 7 8 19 18 24 14 9 15 10 1 11 -9 0 -19 -3 -22 -7z"/>
<path d="M11815 3080 c3 -5 8 -10 11 -10 2 0 4 5 4 10 0 6 -5 10 -11 10 -5 0
-7 -4 -4 -10z"/>
<path d="M11134 3010 c1 -52 2 -55 29 -58 27 -3 27 -3 25 55 l-2 58 -3 -53
c-3 -44 -7 -53 -21 -50 -12 2 -19 17 -23 53 l-6 50 1 -55z"/>
<path d="M11231 3047 c-17 -17 -13 -35 10 -47 24 -13 20 -36 -6 -32 -10 2 -14
-1 -10 -7 9 -15 30 -14 44 3 10 12 8 19 -8 35 -24 24 -28 46 -6 37 8 -3 15 -1
15 3 0 15 -27 20 -39 8z"/>
<path d="M11661 3047 c-17 -17 -13 -35 10 -47 24 -13 20 -36 -6 -32 -10 2 -14
-1 -10 -7 9 -15 30 -14 44 3 10 12 8 19 -8 35 -24 24 -28 46 -6 37 8 -3 15 -1
15 3 0 15 -27 20 -39 8z"/>
<path d="M11823 3005 c0 -33 2 -45 4 -27 2 18 2 45 0 60 -2 15 -4 0 -4 -33z"/>
<path d="M11961 3047 c-17 -17 -13 -35 10 -47 24 -13 20 -36 -6 -32 -10 2 -14
-1 -10 -7 9 -15 30 -14 44 3 10 12 8 19 -8 35 -24 24 -28 46 -6 37 8 -3 15 -1
15 3 0 15 -27 20 -39 8z"/>
<path d="M11383 3043 c-7 -2 -13 -22 -13 -43 0 -29 5 -40 19 -45 34 -10 51 4
51 45 0 44 -20 59 -57 43z m42 -43 c0 -28 -4 -35 -20 -35 -13 0 -21 8 -23 23
-5 34 5 54 25 50 13 -2 18 -13 18 -38z"/>
<path d="M11472 2998 l2 -53 3 48 c3 32 9 47 18 47 9 0 15 -15 18 -47 l3 -48
2 48 c1 33 6 47 16 47 10 0 16 -14 19 -45 l4 -45 -1 47 -1 48 -42 3 -43 3 2
-53z"/>
<path d="M12177 3044 c-4 -4 -7 -22 -7 -39 0 -40 21 -61 47 -46 16 9 15 10 -9
11 -18 0 -28 5 -28 15 0 9 10 15 26 15 21 0 25 4 22 23 -3 22 -36 36 -51 21z
m43 -19 c0 -8 -9 -15 -20 -15 -20 0 -26 11 -13 23 12 13 33 7 33 -8z"/>
<path d="M12307 3044 c-4 -4 -7 -22 -7 -39 0 -40 21 -61 47 -46 16 9 15 10 -9
11 -18 0 -28 5 -28 15 0 9 10 15 26 15 21 0 25 4 22 23 -3 22 -36 36 -51 21z
m43 -19 c0 -8 -9 -15 -20 -15 -20 0 -26 11 -13 23 12 13 33 7 33 -8z"/>
<path d="M12467 3044 c-4 -4 -7 -22 -7 -39 0 -40 21 -61 47 -46 16 9 15 10 -9
11 -18 0 -28 5 -28 15 0 9 10 15 26 15 21 0 25 4 22 23 -3 22 -36 36 -51 21z
m43 -19 c0 -8 -9 -15 -20 -15 -20 0 -26 11 -13 23 12 13 33 7 33 -8z"/>
<path d="M12762 2998 l2 -53 3 47 c3 33 9 48 21 51 12 3 11 5 -5 6 -21 1 -23
-3 -21 -51z"/>
<path d="M12833 3043 c-7 -2 -13 -22 -13 -43 0 -29 5 -40 19 -45 34 -10 51 4
51 45 0 44 -20 59 -57 43z m42 -43 c0 -28 -4 -35 -20 -35 -13 0 -21 8 -23 23
-5 34 5 54 25 50 13 -2 18 -13 18 -38z"/>
<path d="M12922 2998 l2 -53 3 48 c3 32 9 47 18 47 9 0 15 -15 18 -47 l3 -48
2 48 c1 33 6 47 16 47 10 0 16 -14 19 -45 l4 -45 -1 47 -1 48 -42 3 -43 3 2
-53z"/>
<path d="M11990 2819 c0 -3 -13 -42 -30 -87 -16 -45 -26 -82 -22 -82 11 0 66
159 58 167 -3 4 -6 4 -6 2z"/>
<path d="M12420 2819 c0 -3 -13 -42 -30 -87 -16 -45 -26 -82 -22 -82 11 0 66
159 58 167 -3 4 -6 4 -6 2z"/>
<path d="M13570 2819 c0 -3 -13 -42 -30 -87 -16 -45 -26 -82 -22 -82 11 0 66
159 58 167 -3 4 -6 4 -6 2z"/>
<path d="M12070 2786 c0 -18 -6 -25 -22 -28 -20 -3 -23 -9 -23 -48 0 -42 2
-45 28 -48 l27 -3 0 75 c0 42 -2 76 -5 76 -3 0 -5 -11 -5 -24z m0 -77 c0 -33
-3 -40 -17 -37 -32 6 -30 78 2 78 11 0 15 -11 15 -41z"/>
<path d="M12221 2788 c0 -16 -7 -28 -13 -28 -10 0 -10 -2 -1 -8 6 -4 13 -25
15 -47 2 -31 8 -41 23 -43 18 -2 18 -2 3 8 -12 7 -18 23 -18 45 0 24 5 35 18
38 15 4 15 5 0 6 -10 1 -18 12 -21 29 l-4 27 -2 -27z"/>
<path d="M13213 2735 c0 -44 2 -70 4 -57 2 12 7 22 10 22 2 0 13 -10 24 -22
22 -28 25 -11 3 20 -15 21 -15 25 2 43 9 10 12 19 6 19 -6 0 -18 -10 -26 -21
-14 -21 -15 -19 -19 27 -2 30 -4 18 -4 -31z"/>
<path d="M13341 2738 c0 -43 2 -78 7 -78 4 0 6 24 4 52 -5 95 -9 104 -11 26z"/>
<path d="M13391 2738 c0 -43 2 -78 7 -78 4 0 6 24 4 52 -5 95 -9 104 -11 26z"/>
<path d="M13880 2786 c0 -18 -6 -25 -22 -28 -20 -3 -23 -9 -23 -48 0 -42 2
-45 28 -48 l27 -3 0 75 c0 42 -2 76 -5 76 -3 0 -5 -11 -5 -24z m0 -77 c0 -33
-3 -40 -17 -37 -32 6 -30 78 2 78 11 0 15 -11 15 -41z"/>
<path d="M11295 2790 c3 -5 8 -10 11 -10 2 0 4 5 4 10 0 6 -5 10 -11 10 -5 0
-7 -4 -4 -10z"/>
<path d="M12885 2790 c3 -5 8 -10 11 -10 2 0 4 5 4 10 0 6 -5 10 -11 10 -5 0
-7 -4 -4 -10z"/>
<path d="M13295 2790 c3 -5 8 -10 11 -10 2 0 4 5 4 10 0 6 -5 10 -11 10 -5 0
-7 -4 -4 -10z"/>
<path d="M13925 2790 c3 -5 8 -10 11 -10 2 0 4 5 4 10 0 6 -5 10 -11 10 -5 0
-7 -4 -4 -10z"/>
<path d="M11051 2757 c-17 -17 -13 -35 10 -47 24 -13 20 -36 -6 -32 -10 2 -14
-1 -10 -7 9 -15 30 -14 44 3 10 12 8 19 -8 35 -24 24 -28 46 -6 37 8 -3 15 -1
15 3 0 15 -27 20 -39 8z"/>
<path d="M11114 2720 c1 -52 2 -55 29 -58 27 -3 27 -3 25 55 l-2 58 -3 -53
c-3 -44 -7 -53 -21 -50 -12 2 -19 17 -23 53 l-6 50 1 -55z"/>
<path d="M11221 2757 c-17 -17 -13 -35 10 -47 24 -13 20 -36 -6 -32 -10 2 -14
-1 -10 -7 9 -15 30 -14 44 3 10 12 8 19 -8 35 -24 24 -28 46 -6 37 8 -3 15 -1
15 3 0 15 -27 20 -39 8z"/>
<path d="M11303 2715 c0 -33 2 -45 4 -27 2 18 2 45 0 60 -2 15 -4 0 -4 -33z"/>
<path d="M11461 2757 c-17 -17 -13 -35 10 -47 24 -13 20 -36 -6 -32 -10 2 -14
-1 -10 -7 9 -15 30 -14 44 3 10 12 8 19 -8 35 -24 24 -28 46 -6 37 8 -3 15 -1
15 3 0 15 -27 20 -39 8z"/>
<path d="M11694 2745 c6 -38 25 -89 31 -83 11 11 32 98 25 103 -4 3 -11 -12
-15 -33 l-7 -37 -19 40 c-18 37 -19 37 -15 10z"/>
<path d="M12133 2763 c-23 -8 -13 -20 12 -15 18 3 25 0 25 -11 0 -9 -10 -17
-22 -19 -17 -2 -23 -10 -23 -28 0 -20 6 -26 28 -28 26 -3 27 -2 27 42 0 46
-19 69 -47 59z m37 -73 c0 -13 -7 -20 -20 -20 -13 0 -20 7 -20 20 0 13 7 20
20 20 13 0 20 -7 20 -20z"/>
<path d="M12283 2763 c-23 -8 -13 -20 12 -15 18 3 25 0 25 -11 0 -9 -10 -17
-22 -19 -17 -2 -23 -10 -23 -28 0 -20 6 -26 28 -28 26 -3 27 -2 27 42 0 46
-19 69 -47 59z m37 -73 c0 -13 -7 -20 -20 -20 -13 0 -20 7 -20 20 0 13 7 20
20 20 13 0 20 -7 20 -20z"/>
<path d="M12893 2715 c0 -33 2 -45 4 -27 2 18 2 45 0 60 -2 15 -4 0 -4 -33z"/>
<path d="M12951 2757 c-17 -17 -14 -87 5 -94 8 -3 21 0 27 7 9 9 8 11 -8 8
-17 -2 -21 3 -23 36 -3 31 0 38 12 33 8 -3 18 -2 21 2 8 14 -21 21 -34 8z"/>
<path d="M13131 2757 c-17 -17 -13 -35 10 -47 24 -13 20 -36 -6 -32 -10 2 -14
-1 -10 -7 9 -15 30 -14 44 3 10 12 8 19 -8 35 -24 24 -28 46 -6 37 8 -3 15 -1
15 3 0 15 -27 20 -39 8z"/>
<path d="M13303 2715 c0 -33 2 -45 4 -27 2 18 2 45 0 60 -2 15 -4 0 -4 -33z"/>
<path d="M13441 2757 c-17 -17 -13 -35 10 -47 24 -13 20 -36 -6 -32 -10 2 -14
-1 -10 -7 9 -15 30 -14 44 3 10 12 8 19 -8 35 -24 24 -28 46 -6 37 8 -3 15 -1
15 3 0 15 -27 20 -39 8z"/>
<path d="M13933 2715 c0 -33 2 -45 4 -27 2 18 2 45 0 60 -2 15 -4 0 -4 -33z"/>
<path d="M13983 2763 c-23 -8 -13 -20 12 -15 18 3 25 0 25 -11 0 -9 -10 -17
-22 -19 -17 -2 -23 -10 -23 -28 0 -20 6 -26 28 -28 26 -3 27 -2 27 42 0 46
-19 69 -47 59z m37 -73 c0 -13 -7 -20 -20 -20 -13 0 -20 7 -20 20 0 13 7 20
20 20 13 0 20 -7 20 -20z"/>
<path d="M11537 2754 c-4 -4 -7 -22 -7 -39 0 -40 21 -61 47 -46 16 9 15 10 -9
11 -18 0 -28 5 -28 15 0 9 10 15 26 15 21 0 25 4 22 23 -3 22 -36 36 -51 21z
m43 -19 c0 -8 -9 -15 -20 -15 -20 0 -26 11 -13 23 12 13 33 7 33 -8z"/>
<path d="M11622 2708 l2 -53 3 47 c3 33 9 48 21 51 12 3 11 5 -5 6 -21 1 -23
-3 -21 -51z"/>
<path d="M11777 2754 c-4 -4 -7 -22 -7 -39 0 -40 21 -61 47 -46 16 9 15 10 -9
11 -18 0 -28 5 -28 15 0 9 10 15 26 15 21 0 25 4 22 23 -3 22 -36 36 -51 21z
m43 -19 c0 -8 -9 -15 -20 -15 -20 0 -26 11 -13 23 12 13 33 7 33 -8z"/>
<path d="M11872 2708 l2 -53 3 47 c3 33 9 48 21 51 12 3 11 5 -5 6 -21 1 -23
-3 -21 -51z"/>
<path d="M12454 2746 c-3 -8 -4 -29 -2 -48 2 -25 8 -34 26 -36 32 -5 28 -32
-5 -32 -25 -1 -26 -2 -10 -11 32 -19 47 6 47 77 0 62 -1 64 -25 64 -14 0 -28
-6 -31 -14z m46 -37 c0 -33 -3 -40 -17 -37 -32 6 -30 78 2 78 11 0 15 -11 15
-41z"/>
<path d="M12557 2754 c-4 -4 -7 -22 -7 -39 0 -40 21 -61 47 -46 16 9 15 10 -9
11 -18 0 -28 5 -28 15 0 9 10 15 26 15 21 0 25 4 22 23 -3 22 -36 36 -51 21z
m43 -19 c0 -8 -9 -15 -20 -15 -20 0 -26 11 -13 23 12 13 33 7 33 -8z"/>
<path d="M12642 2708 l2 -53 3 48 c3 39 7 48 21 45 12 -2 19 -17 23 -48 l7
-45 -2 50 c-1 47 -3 50 -28 53 -28 3 -28 3 -26 -50z"/>
<path d="M12737 2754 c-4 -4 -7 -22 -7 -39 0 -40 21 -61 47 -46 16 9 15 10 -9
11 -18 0 -28 5 -28 15 0 9 10 15 26 15 21 0 25 4 22 23 -3 22 -36 36 -51 21z
m43 -19 c0 -8 -9 -15 -20 -15 -20 0 -26 11 -13 23 12 13 33 7 33 -8z"/>
<path d="M12822 2708 l2 -53 3 47 c3 33 9 48 21 51 12 3 11 5 -5 6 -21 1 -23
-3 -21 -51z"/>
<path d="M13612 2708 l2 -53 3 48 c3 32 9 47 18 47 9 0 15 -15 18 -47 l3 -48
2 48 c1 33 6 47 16 47 10 0 16 -14 19 -45 l4 -45 -1 47 -1 48 -42 3 -43 3 2
-53z"/>
<path d="M13747 2754 c-4 -4 -7 -22 -7 -39 0 -40 21 -61 47 -46 16 9 15 10 -9
11 -18 0 -28 5 -28 15 0 9 10 15 26 15 21 0 25 4 22 23 -3 22 -36 36 -51 21z
m43 -19 c0 -8 -9 -15 -20 -15 -20 0 -26 11 -13 23 12 13 33 7 33 -8z"/>
<path d="M11337 2633 c18 -2 50 -2 70 0 21 2 7 4 -32 4 -38 0 -55 -2 -38 -4z"/>
<path d="M13017 2633 c18 -2 50 -2 70 0 21 2 7 4 -32 4 -38 0 -55 -2 -38 -4z"/>
<path d="M11920 2539 c0 -3 -13 -42 -30 -87 -16 -45 -26 -82 -22 -82 11 0 66
159 58 167 -3 4 -6 4 -6 2z"/>
<path d="M11200 2506 c0 -18 -6 -25 -22 -28 -20 -3 -23 -9 -23 -48 0 -42 2
-45 28 -48 l27 -3 0 75 c0 42 -2 76 -5 76 -3 0 -5 -11 -5 -24z m0 -77 c0 -33
-3 -40 -17 -37 -32 6 -30 78 2 78 11 0 15 -11 15 -41z"/>
<path d="M11255 2510 c3 -5 8 -10 11 -10 2 0 4 5 4 10 0 6 -5 10 -11 10 -5 0
-7 -4 -4 -10z"/>
<path d="M11263 2435 c0 -33 2 -45 4 -27 2 18 2 45 0 60 -2 15 -4 0 -4 -33z"/>
<path d="M11301 2477 c-17 -17 -13 -35 10 -47 24 -13 20 -36 -6 -32 -10 2 -14
-1 -10 -7 9 -15 30 -14 44 3 10 12 8 19 -8 35 -24 24 -28 46 -6 37 8 -3 15 -1
15 3 0 15 -27 20 -39 8z"/>
<path d="M11391 2477 c-17 -17 -14 -87 5 -94 8 -3 21 0 27 7 9 9 8 11 -8 8
-17 -2 -21 3 -23 36 -3 31 0 38 12 33 8 -3 18 -2 21 2 8 14 -21 21 -34 8z"/>
<path d="M11534 2465 c6 -38 25 -89 31 -83 11 11 32 98 25 103 -4 3 -11 -12
-15 -33 l-7 -37 -19 40 c-18 37 -19 37 -15 10z"/>
<path d="M11463 2473 c-7 -2 -13 -22 -13 -43 0 -29 5 -40 19 -45 34 -10 51 4
51 45 0 44 -20 59 -57 43z m42 -43 c0 -28 -4 -35 -20 -35 -13 0 -21 8 -23 23
-5 34 5 54 25 50 13 -2 18 -13 18 -38z"/>
<path d="M11627 2474 c-4 -4 -7 -22 -7 -39 0 -40 21 -61 47 -46 16 9 15 10 -9
11 -18 0 -28 5 -28 15 0 9 10 15 26 15 21 0 25 4 22 23 -3 22 -36 36 -51 21z
m43 -19 c0 -8 -9 -15 -20 -15 -20 0 -26 11 -13 23 12 13 33 7 33 -8z"/>
<path d="M11712 2428 l2 -53 3 47 c3 33 9 48 21 51 12 3 11 5 -5 6 -21 1 -23
-3 -21 -51z"/>
<path d="M11785 2460 c18 -79 18 -103 0 -117 -17 -12 -17 -13 -2 -13 10 0 21
10 26 23 22 56 39 127 32 127 -5 0 -13 -15 -18 -32 l-10 -33 -16 35 c-12 24
-16 27 -12 10z"/>
<path d="M11047 2353 c18 -2 50 -2 70 0 21 2 7 4 -32 4 -38 0 -55 -2 -38 -4z"/>
<path d="M16160 3100 c0 -29 -4 -40 -15 -40 -8 0 -15 -4 -15 -10 0 -5 7 -10
15 -10 12 0 15 -14 15 -64 0 -66 14 -96 46 -96 21 0 17 17 -6 23 -17 4 -20 14
-20 71 0 59 2 66 20 66 11 0 20 5 20 10 0 6 -9 10 -20 10 -17 0 -20 7 -20 40
0 22 -4 40 -10 40 -5 0 -10 -18 -10 -40z"/>
<path d="M16550 3100 c0 -29 -4 -40 -15 -40 -8 0 -15 -4 -15 -10 0 -5 7 -10
15 -10 12 0 15 -14 15 -64 0 -66 14 -96 46 -96 21 0 17 17 -6 23 -17 4 -20 14
-20 71 0 59 2 66 20 66 11 0 20 5 20 10 0 6 -9 10 -20 10 -17 0 -20 7 -20 40
0 22 -4 40 -10 40 -5 0 -10 -18 -10 -40z"/>
<path d="M15840 3005 l0 -125 40 0 c65 0 80 23 80 125 0 102 -15 125 -80 125
l-40 0 0 -125z m84 89 c3 -9 6 -46 6 -84 0 -84 -6 -100 -36 -100 -24 0 -24 1
-24 100 0 99 0 100 24 100 13 0 27 -7 30 -16z"/>
<path d="M16850 3025 c0 -92 3 -108 20 -125 11 -11 31 -20 45 -20 14 0 34 9
45 20 17 17 20 33 20 125 0 86 -3 105 -15 105 -11 0 -15 -20 -17 -101 -2 -82
-6 -104 -20 -112 -12 -8 -21 -7 -32 2 -13 11 -16 34 -16 112 0 81 -3 99 -15
99 -12 0 -15 -18 -15 -105z"/>
<path d="M17032 3114 c-35 -24 -28 -60 23 -115 50 -53 55 -73 24 -89 -16 -9
-25 -8 -40 6 -22 20 -38 11 -23 -14 15 -24 62 -27 85 -6 30 27 24 65 -17 105
-44 42 -56 63 -48 83 7 18 49 22 59 6 9 -15 25 -12 25 5 0 15 -29 35 -52 35
-8 0 -24 -7 -36 -16z"/>
<path d="M17170 3005 l0 -125 40 0 c66 0 100 54 69 112 -8 14 -8 23 0 31 18
18 13 65 -9 87 -13 13 -33 20 -60 20 l-40 0 0 -125z m83 84 c5 -9 7 -28 3 -42
-5 -20 -13 -27 -31 -27 -23 0 -25 4 -25 46 0 41 2 45 21 42 12 -2 26 -10 32
-19z m2 -139 c0 -31 -3 -35 -27 -38 -27 -3 -28 -1 -28 38 0 39 1 41 28 38 24
-3 27 -7 27 -38z"/>
<path d="M16006 3044 c-11 -10 -16 -34 -16 -73 0 -68 22 -98 65 -87 38 10 32
34 -7 32 -27 -1 -34 3 -36 22 -3 20 1 22 37 22 40 0 41 1 41 34 0 38 -21 66
-50 66 -10 0 -26 -7 -34 -16z m62 -36 c3 -25 0 -28 -27 -28 -26 0 -31 4 -31
23 0 30 9 39 35 35 13 -2 21 -12 23 -30z"/>
<path d="M16266 3044 c-11 -10 -16 -34 -16 -73 0 -68 22 -98 65 -87 38 10 32
34 -7 32 -27 -1 -34 3 -36 22 -3 20 1 22 37 22 40 0 41 1 41 34 0 38 -21 66
-50 66 -10 0 -26 -7 -34 -16z m62 -36 c3 -25 0 -28 -27 -28 -26 0 -31 4 -31
23 0 30 9 39 35 35 13 -2 21 -12 23 -30z"/>
<path d="M16416 3044 c-19 -18 -22 -114 -6 -145 13 -23 53 -25 71 -2 13 15 12
16 -9 10 -42 -10 -52 1 -52 58 0 56 15 80 40 65 20 -12 33 -1 19 16 -15 19
-44 18 -63 -2z"/>
<path d="M16656 3044 c-25 -25 -19 -50 22 -82 35 -29 36 -32 20 -48 -14 -14
-20 -15 -33 -4 -21 18 -33 3 -13 -17 24 -23 66 -10 74 24 6 23 1 32 -31 59
-33 28 -37 35 -26 48 10 12 18 13 33 5 27 -14 38 -1 14 17 -25 18 -41 18 -60
-2z"/>
<path d="M15910 2630 c0 -35 -3 -40 -23 -40 -39 0 -57 -30 -57 -93 0 -66 16
-87 66 -87 l34 0 0 130 c0 80 -4 130 -10 130 -5 0 -10 -18 -10 -40z m0 -131
l0 -70 -27 3 c-26 3 -28 6 -31 57 -4 68 1 81 33 81 24 0 25 -2 25 -71z"/>
<path d="M17060 2630 c0 -29 -4 -40 -15 -40 -8 0 -15 -4 -15 -10 0 -5 7 -10
15 -10 12 0 15 -14 15 -64 0 -66 14 -96 46 -96 21 0 17 17 -6 23 -17 4 -20 14
-20 71 0 59 2 66 20 66 11 0 20 5 20 10 0 6 -9 10 -20 10 -17 0 -20 7 -20 40
0 22 -4 40 -10 40 -5 0 -10 -18 -10 -40z"/>
<path d="M15987 2644 c-8 -8 1 -24 14 -24 5 0 9 7 9 15 0 15 -12 20 -23 9z"/>
<path d="M17167 2644 c-8 -8 1 -24 14 -24 5 0 9 7 9 15 0 15 -12 20 -23 9z"/>
<path d="M15990 2500 c0 -53 4 -90 10 -90 6 0 10 37 10 90 0 53 -4 90 -10 90
-6 0 -10 -37 -10 -90z"/>
<path d="M16076 2574 c-25 -25 -19 -50 22 -82 35 -29 36 -32 20 -48 -14 -14
-20 -15 -33 -4 -21 18 -33 3 -13 -17 24 -23 66 -10 74 24 6 23 1 32 -31 59
-33 28 -37 35 -26 48 10 12 18 13 33 5 27 -14 38 -1 14 17 -25 18 -41 18 -60
-2z"/>
<path d="M16206 2574 c-19 -18 -22 -114 -6 -145 13 -23 53 -25 71 -2 13 15 12
16 -9 10 -42 -10 -52 1 -52 58 0 56 15 80 40 65 20 -12 33 -1 19 16 -15 19
-44 18 -63 -2z"/>
<path d="M16327 2572 c-24 -27 -23 -123 1 -145 24 -22 55 -21 75 1 24 27 23
123 -1 145 -24 22 -55 21 -75 -1z m57 -8 c12 -5 16 -20 16 -64 0 -61 -12 -77
-51 -65 -16 5 -19 17 -19 65 0 64 13 80 54 64z"/>
<path d="M16470 2500 c0 -53 4 -90 10 -90 6 0 10 34 10 81 l0 80 28 -3 c27 -3
27 -4 30 -80 4 -100 22 -102 22 -4 0 86 -12 106 -66 106 l-34 0 0 -90z"/>
<path d="M16630 2500 c0 -53 4 -90 10 -90 6 0 10 34 10 81 l0 80 28 -3 c27 -3
27 -4 30 -80 4 -100 22 -102 22 -4 0 86 -12 106 -66 106 l-34 0 0 -90z"/>
<path d="M16786 2574 c-11 -10 -16 -34 -16 -73 0 -68 22 -98 65 -87 38 10 32
34 -7 32 -27 -1 -34 3 -36 22 -3 20 1 22 37 22 40 0 41 1 41 34 0 38 -21 66
-50 66 -10 0 -26 -7 -34 -16z m62 -36 c3 -25 0 -28 -27 -28 -26 0 -31 4 -31
23 0 30 9 39 35 35 13 -2 21 -12 23 -30z"/>
<path d="M16926 2574 c-19 -18 -22 -114 -6 -145 13 -23 53 -25 71 -2 13 15 12
16 -9 10 -42 -10 -52 1 -52 58 0 56 15 80 40 65 20 -12 33 -1 19 16 -15 19
-44 18 -63 -2z"/>
<path d="M17170 2500 c0 -53 4 -90 10 -90 6 0 10 37 10 90 0 53 -4 90 -10 90
-6 0 -10 -37 -10 -90z"/>
<path d="M17257 2572 c-24 -27 -23 -123 1 -145 24 -22 55 -21 75 1 24 27 23
123 -1 145 -24 22 -55 21 -75 -1z m57 -8 c12 -5 16 -20 16 -64 0 -61 -12 -77
-51 -65 -16 5 -19 17 -19 65 0 64 13 80 54 64z"/>
<path d="M17400 2500 c0 -53 4 -90 10 -90 6 0 10 34 10 81 l0 80 28 -3 c27 -3
27 -4 30 -80 4 -100 22 -102 22 -4 0 86 -12 106 -66 106 l-34 0 0 -90z"/>
<path d="M16595 4920 c0 -294 1 -415 2 -267 2 147 2 387 0 535 -1 147 -2 26
-2 -268z"/>
<path d="M2595 3615 c0 -291 1 -409 2 -262 2 148 2 386 0 530 -1 144 -2 24 -2
-268z"/>
<path d="M6195 3615 c0 -291 1 -409 2 -262 2 148 2 386 0 530 -1 144 -2 24 -2
-268z"/>
<path d="M9895 3615 c0 -291 1 -409 2 -262 2 148 2 386 0 530 -1 144 -2 24 -2
-268z"/>
<path d="M2595 2410 c0 -239 1 -337 2 -218 2 120 2 316 0 436 -1 119 -2 21 -2
-218z"/>
<path d="M6195 2410 c0 -239 1 -337 2 -218 2 120 2 316 0 436 -1 119 -2 21 -2
-218z"/>
<path d="M9895 2410 c0 -239 1 -337 2 -218 2 120 2 316 0 436 -1 119 -2 21 -2
-218z"/>
<path d="M5152 10474 c-45 -31 -20 -57 32 -33 38 18 76 -10 76 -55 0 -33 -1
-34 -52 -38 -40 -4 -57 -11 -75 -32 -34 -39 -31 -90 7 -127 27 -28 34 -30 92
-27 l63 3 3 133 3 133 -30 29 c-34 34 -82 40 -119 14z m108 -219 l0 -55 -37 0
c-63 0 -94 50 -56 92 10 11 30 18 55 18 l38 0 0 -55z"/>
<path d="M5409 10461 c-28 -29 -29 -32 -29 -136 0 -104 1 -107 29 -136 33 -32
92 -40 126 -15 24 17 13 52 -13 41 -63 -27 -102 -8 -102 50 l0 34 73 3 72 3 3
63 c3 58 1 65 -27 92 -41 41 -91 41 -132 1z m103 -28 c11 -10 18 -30 18 -55
l0 -38 -55 0 -55 0 0 37 c0 63 50 94 92 56z"/>
<path d="M5664 10477 c-2 -7 -3 -80 -2 -162 3 -125 5 -150 18 -150 13 0 15 24
18 143 l3 142 49 0 49 0 3 -142 c3 -119 5 -143 18 -143 13 0 15 24 18 143 l3
142 32 0 c59 0 62 -7 67 -152 4 -109 8 -133 20 -133 12 0 15 23 18 133 l3 133
-30 29 -29 30 -127 0 c-93 0 -127 -3 -131 -13z"/>
<path d="M6099 10461 c-28 -29 -29 -32 -29 -136 0 -104 1 -107 29 -136 22 -21
39 -29 66 -29 27 0 44 8 66 29 28 29 29 32 29 136 0 104 -1 107 -29 136 -22
21 -39 29 -66 29 -27 0 -44 -8 -66 -29z m103 -28 c25 -23 27 -187 1 -215 -20
-22 -51 -23 -75 -1 -25 23 -27 187 -1 215 20 22 51 23 75 1z"/>
<path d="M6354 10477 c-2 -7 -3 -80 -2 -162 3 -125 5 -150 18 -150 13 0 15 24
18 143 l3 142 38 0 c62 0 70 -17 73 -160 3 -103 6 -125 18 -125 12 0 15 23 18
133 l3 133 -30 29 c-26 27 -36 30 -91 30 -40 0 -62 -4 -66 -13z"/>
<path d="M7269 10461 c-28 -29 -29 -32 -29 -136 0 -104 1 -107 29 -136 22 -21
39 -29 66 -29 27 0 44 8 66 29 28 29 29 32 29 136 0 104 -1 107 -29 136 -22
21 -39 29 -66 29 -27 0 -44 -8 -66 -29z m103 -28 c25 -23 27 -187 1 -215 -20
-22 -51 -23 -75 -1 -25 23 -27 187 -1 215 20 22 51 23 75 1z"/>
<path d="M7524 10477 c-2 -7 -3 -80 -2 -162 3 -125 5 -150 18 -150 13 0 15 24
18 144 l3 144 49 -6 c55 -7 75 7 45 30 -24 17 -124 18 -131 0z"/>
<path d="M8379 10461 c-28 -29 -29 -32 -29 -136 0 -104 1 -107 29 -136 22 -21
39 -29 66 -29 27 0 44 8 66 29 28 29 29 32 29 136 0 104 -1 107 -29 136 -22
21 -39 29 -66 29 -27 0 -44 -8 -66 -29z m103 -28 c25 -23 27 -187 1 -215 -20
-22 -51 -23 -75 -1 -25 23 -27 187 -1 215 20 22 51 23 75 1z"/>
<path d="M8611 10468 c0 -13 17 -86 37 -163 45 -169 60 -183 86 -78 9 37 22
86 28 108 l11 40 27 -105 c21 -87 29 -105 45 -105 16 0 25 23 57 150 20 83 36
156 33 163 -2 6 -11 12 -19 12 -16 0 -22 -17 -52 -145 l-18 -78 -27 107 c-15
59 -30 110 -33 113 -17 17 -35 -15 -56 -101 -13 -53 -26 -96 -29 -96 -4 0 -14
35 -24 78 -24 100 -33 122 -52 122 -9 0 -15 -9 -14 -22z"/>
</g>
</svg>
